<svg xmlns="http://www.w3.org/2000/svg" xmlns:xlink="http://www.w3.org/1999/xlink" version="1.1" class="marks" width="460" height="410" viewBox="0 0 460 410"><rect width="460" height="410" fill="white"/><g fill="none" stroke-miterlimit="10" transform="translate(53,23)"><g class="mark-group role-frame root" role="graphics-object" aria-roledescription="group mark container"><g transform="translate(0,0)"><path class="background" aria-hidden="true" d="M0.5,0.5h400v350h-400Z" stroke="#ddd"/><g><g class="mark-group role-axis" aria-hidden="true"><g transform="translate(0.5,350.5)"><path class="background" aria-hidden="true" d="M0,0h0v0h0Z" pointer-events="none"/><g><g class="mark-rule role-axis-grid" pointer-events="none"><line transform="translate(0,-350)" x2="0" y2="350" stroke="#ddd" stroke-width="1" opacity="1"/><line transform="translate(296,-350)" x2="0" y2="350" stroke="#ddd" stroke-width="1" opacity="1"/><line transform="translate(329,-350)" x2="0" y2="350" stroke="#ddd" stroke-width="1" opacity="1"/><line transform="translate(348,-350)" x2="0" y2="350" stroke="#ddd" stroke-width="1" opacity="1"/><line transform="translate(361,-350)" x2="0" y2="350" stroke="#ddd" stroke-width="1" opacity="1"/><line transform="translate(372,-350)" x2="0" y2="350" stroke="#ddd" stroke-width="1" opacity="1"/><line transform="translate(381,-350)" x2="0" y2="350" stroke="#ddd" stroke-width="1" opacity="1"/><line transform="translate(388,-350)" x2="0" y2="350" stroke="#ddd" stroke-width="1" opacity="1"/><line transform="translate(394,-350)" x2="0" y2="350" stroke="#ddd" stroke-width="1" opacity="1"/><line transform="translate(400,-350)" x2="0" y2="350" stroke="#ddd" stroke-width="1" opacity="1"/></g></g><path class="foreground" aria-hidden="true" d="" pointer-events="none" display="none"/></g></g><g class="mark-group role-axis" aria-hidden="true"><g transform="translate(0.5,0.5)"><path class="background" aria-hidden="true" d="M0,0h0v0h0Z" pointer-events="none"/><g><g class="mark-rule role-axis-grid" pointer-events="none"><line transform="translate(0,350)" x2="400" y2="0" stroke="#ddd" stroke-width="1" opacity="1"/><line transform="translate(0,91)" x2="400" y2="0" stroke="#ddd" stroke-width="1" opacity="1"/><line transform="translate(0,63)" x2="400" y2="0" stroke="#ddd" stroke-width="1" opacity="1"/><line transform="translate(0,46)" x2="400" y2="0" stroke="#ddd" stroke-width="1" opacity="1"/><line transform="translate(0,34)" x2="400" y2="0" stroke="#ddd" stroke-width="1" opacity="1"/><line transform="translate(0,24)" x2="400" y2="0" stroke="#ddd" stroke-width="1" opacity="1"/><line transform="translate(0,17)" x2="400" y2="0" stroke="#ddd" stroke-width="1" opacity="1"/><line transform="translate(0,10)" x2="400" y2="0" stroke="#ddd" stroke-width="1" opacity="1"/><line transform="translate(0,5)" x2="400" y2="0" stroke="#ddd" stroke-width="1" opacity="1"/><line transform="translate(0,0)" x2="400" y2="0" stroke="#ddd" stroke-width="1" opacity="1"/></g></g><path class="foreground" aria-hidden="true" d="" pointer-events="none" display="none"/></g></g><g class="mark-group role-axis" role="graphics-symbol" aria-roledescription="axis" aria-label="X-axis titled 'Observed L_ij (in thousands)' for a symlog scale with values from 0 to 4,500"><g transform="translate(0.5,350.5)"><path class="background" aria-hidden="true" d="M0,0h0v0h0Z" pointer-events="none"/><g><g class="mark-rule role-axis-tick" pointer-events="none"><line transform="translate(0,0)" x2="0" y2="5" stroke="#888" stroke-width="1" opacity="1"/><line transform="translate(296,0)" x2="0" y2="5" stroke="#888" stroke-width="1" opacity="1"/><line transform="translate(329,0)" x2="0" y2="5" stroke="#888" stroke-width="1" opacity="1"/><line transform="translate(348,0)" x2="0" y2="5" stroke="#888" stroke-width="1" opacity="1"/><line transform="translate(361,0)" x2="0" y2="5" stroke="#888" stroke-width="1" opacity="1"/><line transform="translate(372,0)" x2="0" y2="5" stroke="#888" stroke-width="1" opacity="1"/><line transform="translate(381,0)" x2="0" y2="5" stroke="#888" stroke-width="1" opacity="1"/><line transform="translate(388,0)" x2="0" y2="5" stroke="#888" stroke-width="1" opacity="1"/><line transform="translate(394,0)" x2="0" y2="5" stroke="#888" stroke-width="1" opacity="1"/><line transform="translate(400,0)" x2="0" y2="5" stroke="#888" stroke-width="1" opacity="1"/></g><g class="mark-text role-axis-label" pointer-events="none"><text text-anchor="start" transform="translate(0,15)" font-family="sans-serif" font-size="10px" fill="#000" opacity="1">0</text><text text-anchor="middle" transform="translate(295.6046385680006,15)" font-family="sans-serif" font-size="10px" fill="#000" opacity="1">500</text><text text-anchor="middle" transform="translate(328.5168669666921,15)" font-family="sans-serif" font-size="10px" fill="#000" opacity="1">1,000</text><text text-anchor="middle" transform="translate(347.7812231041908,15)" font-family="sans-serif" font-size="10px" fill="#000" opacity="0">1,500</text><text text-anchor="middle" transform="translate(361.45281737127493,15)" font-family="sans-serif" font-size="10px" fill="#000" opacity="1">2,000</text><text text-anchor="middle" transform="translate(372.05872043080046,15)" font-family="sans-serif" font-size="10px" fill="#000" opacity="0">2,500</text><text text-anchor="middle" transform="translate(380.7250887466506,15)" font-family="sans-serif" font-size="10px" fill="#000" opacity="0">3,000</text><text text-anchor="middle" transform="translate(388.05281438969433,15)" font-family="sans-serif" font-size="10px" fill="#000" opacity="1">3,500</text><text text-anchor="middle" transform="translate(394.40064211613486,15)" font-family="sans-serif" font-size="10px" fill="#000" opacity="0">4,000</text><text text-anchor="end" transform="translate(400,15)" font-family="sans-serif" font-size="10px" fill="#000" opacity="0">4,500</text></g><g class="mark-rule role-axis-domain" pointer-events="none"><line transform="translate(0,0)" x2="400" y2="0" stroke="#888" stroke-width="1" opacity="1"/></g><g class="mark-text role-axis-title" pointer-events="none"><text text-anchor="middle" transform="translate(200,30)" font-family="sans-serif" font-size="11px" font-weight="bold" fill="#000" opacity="1">Observed L_ij (in thousands)</text></g></g><path class="foreground" aria-hidden="true" d="" pointer-events="none" display="none"/></g></g><g class="mark-group role-axis" role="graphics-symbol" aria-roledescription="axis" aria-label="Y-axis titled 'Predicted L_ij (in thousands)' for a symlog scale with values from 0 to 4,500"><g transform="translate(0.5,0.5)"><path class="background" aria-hidden="true" d="M0,0h0v0h0Z" pointer-events="none"/><g><g class="mark-rule role-axis-tick" pointer-events="none"><line transform="translate(0,350)" x2="-5" y2="0" stroke="#888" stroke-width="1" opacity="1"/><line transform="translate(0,91)" x2="-5" y2="0" stroke="#888" stroke-width="1" opacity="1"/><line transform="translate(0,63)" x2="-5" y2="0" stroke="#888" stroke-width="1" opacity="1"/><line transform="translate(0,46)" x2="-5" y2="0" stroke="#888" stroke-width="1" opacity="1"/><line transform="translate(0,34)" x2="-5" y2="0" stroke="#888" stroke-width="1" opacity="1"/><line transform="translate(0,24)" x2="-5" y2="0" stroke="#888" stroke-width="1" opacity="1"/><line transform="translate(0,17)" x2="-5" y2="0" stroke="#888" stroke-width="1" opacity="1"/><line transform="translate(0,10)" x2="-5" y2="0" stroke="#888" stroke-width="1" opacity="1"/><line transform="translate(0,5)" x2="-5" y2="0" stroke="#888" stroke-width="1" opacity="1"/><line transform="translate(0,0)" x2="-5" y2="0" stroke="#888" stroke-width="1" opacity="1"/></g><g class="mark-text role-axis-label" pointer-events="none"><text text-anchor="end" transform="translate(-7,353)" font-family="sans-serif" font-size="10px" fill="#000" opacity="1">0</text><text text-anchor="end" transform="translate(-7,94.34594125299945)" font-family="sans-serif" font-size="10px" fill="#000" opacity="1">500</text><text text-anchor="end" transform="translate(-7,65.54774140414443)" font-family="sans-serif" font-size="10px" fill="#000" opacity="1">1,000</text><text text-anchor="end" transform="translate(-7,48.69142978383305)" font-family="sans-serif" font-size="10px" fill="#000" opacity="1">1,500</text><text text-anchor="end" transform="translate(-7,36.72878480013446)" font-family="sans-serif" font-size="10px" fill="#000" opacity="1">2,000</text><text text-anchor="end" transform="translate(-7,27.448619623049616)" font-family="sans-serif" font-size="10px" fill="#000" opacity="0">2,500</text><text text-anchor="end" transform="translate(-7,19.8655473466807)" font-family="sans-serif" font-size="10px" fill="#000" opacity="1">3,000</text><text text-anchor="end" transform="translate(-7,13.453787409017467)" font-family="sans-serif" font-size="10px" fill="#000" opacity="0">3,500</text><text text-anchor="end" transform="translate(-7,7.8994381483819796)" font-family="sans-serif" font-size="10px" fill="#000" opacity="1">4,000</text><text text-anchor="end" transform="translate(-7,3)" font-family="sans-serif" font-size="10px" fill="#000" opacity="0">4,500</text></g><g class="mark-rule role-axis-domain" pointer-events="none"><line transform="translate(0,350)" x2="0" y2="-350" stroke="#888" stroke-width="1" opacity="1"/></g><g class="mark-text role-axis-title" pointer-events="none"><text text-anchor="middle" transform="translate(-36.0244140625,175) rotate(-90) translate(0,-2)" font-family="sans-serif" font-size="11px" font-weight="bold" fill="#000" opacity="1">Predicted L_ij (in thousands)</text></g></g><path class="foreground" aria-hidden="true" d="" pointer-events="none" display="none"/></g></g><g class="mark-line role-mark layer_0_marks" role="graphics-object" aria-roledescription="line mark container"><path aria-label="x: 0; y: 0" role="graphics-symbol" aria-roledescription="line mark" d="M0,350L399.25,0.657" stroke="#898989" stroke-width="0.5" stroke-dasharray="5,5"/></g><g class="mark-symbol role-mark layer_1_marks" role="graphics-object" aria-roledescription="symbol mark container"><path aria-label="Observed L_ij (in thousands): 4429.523; Predicted L_ij (in thousands): 3656.52305978; county_i_name: Los Angeles; county_j_name: Los Angeles; L_ij_data: 4429.523; L_ij_eq: 3656.52305978" role="graphics-symbol" aria-roledescription="circle" transform="translate(399.2495551315772,8.634002459915996)" d="M2.739,0A2.739,2.739,0,1,1,-2.739,0A2.739,2.739,0,1,1,2.739,0" fill="#CD5C5C" stroke-width="2" opacity="0.7"/><path aria-label="Observed L_ij (in thousands): 180.25; Predicted L_ij (in thousands): 257.442827566; county_i_name: Orange; county_j_name: Los Angeles; L_ij_data: 180.25; L_ij_eq: 257.442827566" role="graphics-symbol" aria-roledescription="circle" transform="translate(247.2583630068153,118.8869005113416)" d="M2.739,0A2.739,2.739,0,1,1,-2.739,0A2.739,2.739,0,1,1,2.739,0" fill="#CD5C5C" stroke-width="2" opacity="0.7"/><path aria-label="Observed L_ij (in thousands): 53.172; Predicted L_ij (in thousands): 12.8261746327; county_i_name: Riverside; county_j_name: Los Angeles; L_ij_data: 53.172; L_ij_eq: 12.8261746327" role="graphics-symbol" aria-roledescription="circle" transform="translate(189.83062901635003,240.7166867412808)" d="M2.739,0A2.739,2.739,0,1,1,-2.739,0A2.739,2.739,0,1,1,2.739,0" fill="#CD5C5C" stroke-width="2" opacity="0.7"/><path aria-label="Observed L_ij (in thousands): 132.992; Predicted L_ij (in thousands): 48.8712055052; county_i_name: San Bernardino; county_j_name: Los Angeles; L_ij_data: 132.992; L_ij_eq: 48.8712055052" role="graphics-symbol" aria-roledescription="circle" transform="translate(232.89339741355795,187.33994275038208)" d="M2.739,0A2.739,2.739,0,1,1,-2.739,0A2.739,2.739,0,1,1,2.739,0" fill="#CD5C5C" stroke-width="2" opacity="0.7"/><path aria-label="Observed L_ij (in thousands): 6.075; Predicted L_ij (in thousands): 0.978765089889; county_i_name: San Diego; county_j_name: Los Angeles; L_ij_data: 6.075; L_ij_eq: 0.978765089889" role="graphics-symbol" aria-roledescription="circle" transform="translate(93.03636141229285,321.6043774140791)" d="M2.739,0A2.739,2.739,0,1,1,-2.739,0A2.739,2.739,0,1,1,2.739,0" fill="#CD5C5C" stroke-width="2" opacity="0.7"/><path aria-label="Observed L_ij (in thousands): 66.18; Predicted L_ij (in thousands): 11.1633599012; county_i_name: Ventura; county_j_name: Los Angeles; L_ij_data: 66.18; L_ij_eq: 11.1633599012" role="graphics-symbol" aria-roledescription="circle" transform="translate(200.06410550373187,246.04800916268965)" d="M2.739,0A2.739,2.739,0,1,1,-2.739,0A2.739,2.739,0,1,1,2.739,0" fill="#CD5C5C" stroke-width="2" opacity="0.7"/><path aria-label="Observed L_ij (in thousands): 196.169; Predicted L_ij (in thousands): 746.884116697; county_i_name: Los Angeles; county_j_name: Orange; L_ij_data: 196.169; L_ij_eq: 746.884116697" role="graphics-symbol" aria-roledescription="circle" transform="translate(251.26137708758748,74.67644951143205)" d="M2.739,0A2.739,2.739,0,1,1,-2.739,0A2.739,2.739,0,1,1,2.739,0" fill="#CD5C5C" stroke-width="2" opacity="0.7"/><path aria-label="Observed L_ij (in thousands): 1325.458; Predicted L_ij (in thousands): 1153.40287413; county_i_name: Orange; county_j_name: Orange; L_ij_data: 1325.458; L_ij_eq: 1153.40287413" role="graphics-symbol" aria-roledescription="circle" transform="translate(341.9030246051044,56.61526687778816)" d="M2.739,0A2.739,2.739,0,1,1,-2.739,0A2.739,2.739,0,1,1,2.739,0" fill="#CD5C5C" stroke-width="2" opacity="0.7"/><path aria-label="Observed L_ij (in thousands): 75.863; Predicted L_ij (in thousands): 90.8965775719; county_i_name: Riverside; county_j_name: Orange; L_ij_data: 75.863; L_ij_eq: 90.8965775719" role="graphics-symbol" aria-roledescription="circle" transform="translate(206.46677568243254,161.9089390651985)" d="M2.739,0A2.739,2.739,0,1,1,-2.739,0A2.739,2.739,0,1,1,2.739,0" fill="#CD5C5C" stroke-width="2" opacity="0.7"/><path aria-label="Observed L_ij (in thousands): 37.327; Predicted L_ij (in thousands): 103.139999149; county_i_name: San Bernardino; county_j_name: Orange; L_ij_data: 37.327; L_ij_eq: 103.139999149" role="graphics-symbol" aria-roledescription="circle" transform="translate(173.3775950620559,156.70505918728202)" d="M2.739,0A2.739,2.739,0,1,1,-2.739,0A2.739,2.739,0,1,1,2.739,0" fill="#CD5C5C" stroke-width="2" opacity="0.7"/><path aria-label="Observed L_ij (in thousands): 12.12; Predicted L_ij (in thousands): 12.6954081969; county_i_name: San Diego; county_j_name: Orange; L_ij_data: 12.12; L_ij_eq: 12.6954081969" role="graphics-symbol" aria-roledescription="circle" transform="translate(122.4023296228588,241.1120734723284)" d="M2.739,0A2.739,2.739,0,1,1,-2.739,0A2.739,2.739,0,1,1,2.739,0" fill="#CD5C5C" stroke-width="2" opacity="0.7"/><path aria-label="Observed L_ij (in thousands): 0.576; Predicted L_ij (in thousands): 0.997131520136; county_i_name: Ventura; county_j_name: Orange; L_ij_data: 0.576; L_ij_eq: 0.997131520136" role="graphics-symbol" aria-roledescription="circle" transform="translate(21.63038631047916,321.21997270118044)" d="M2.739,0A2.739,2.739,0,1,1,-2.739,0A2.739,2.739,0,1,1,2.739,0" fill="#CD5C5C" stroke-width="2" opacity="0.7"/><path aria-label="Observed L_ij (in thousands): 16.786; Predicted L_ij (in thousands): 19.9021500707; county_i_name: Los Angeles; county_j_name: Riverside; L_ij_data: 16.786; L_ij_eq: 19.9021500707" role="graphics-symbol" aria-roledescription="circle" transform="translate(136.8707966999118,223.5210093393908)" d="M2.739,0A2.739,2.739,0,1,1,-2.739,0A2.739,2.739,0,1,1,2.739,0" fill="#CD5C5C" stroke-width="2" opacity="0.7"/><path aria-label="Observed L_ij (in thousands): 16.208; Predicted L_ij (in thousands): 48.6158577368; county_i_name: Orange; county_j_name: Riverside; L_ij_data: 16.208; L_ij_eq: 48.6158577368" role="graphics-symbol" aria-roledescription="circle" transform="translate(135.29984931501502,187.55352362085532)" d="M2.739,0A2.739,2.739,0,1,1,-2.739,0A2.739,2.739,0,1,1,2.739,0" fill="#CD5C5C" stroke-width="2" opacity="0.7"/><path aria-label="Observed L_ij (in thousands): 725.518; Predicted L_ij (in thousands): 624.669646755; county_i_name: Riverside; county_j_name: Riverside; L_ij_data: 725.518; L_ij_eq: 624.669646755" role="graphics-symbol" aria-roledescription="circle" transform="translate(313.2772364547952,82.10019278482036)" d="M2.739,0A2.739,2.739,0,1,1,-2.739,0A2.739,2.739,0,1,1,2.739,0" fill="#CD5C5C" stroke-width="2" opacity="0.7"/><path aria-label="Observed L_ij (in thousands): 78.508; Predicted L_ij (in thousands): 200.346947225; county_i_name: San Bernardino; county_j_name: Riverside; L_ij_data: 78.508; L_ij_eq: 200.346947225" role="graphics-symbol" aria-roledescription="circle" transform="translate(208.07556353066943,129.2738680448073)" d="M2.739,0A2.739,2.739,0,1,1,-2.739,0A2.739,2.739,0,1,1,2.739,0" fill="#CD5C5C" stroke-width="2" opacity="0.7"/><path aria-label="Observed L_ij (in thousands): 6.989; Predicted L_ij (in thousands): 19.2449271251; county_i_name: San Diego; county_j_name: Riverside; L_ij_data: 6.989; L_ij_eq: 19.2449271251" role="graphics-symbol" aria-roledescription="circle" transform="translate(98.81369661995264,224.85025914623634)" d="M2.739,0A2.739,2.739,0,1,1,-2.739,0A2.739,2.739,0,1,1,2.739,0" fill="#CD5C5C" stroke-width="2" opacity="0.7"/><path aria-label="Observed L_ij (in thousands): 0.177; Predicted L_ij (in thousands): 0.0214060789453; county_i_name: Ventura; county_j_name: Riverside; L_ij_data: 0.177; L_ij_eq: 0.0214060789453" role="graphics-symbol" aria-roledescription="circle" transform="translate(7.749299343994644,349.11875689234415)" d="M2.739,0A2.739,2.739,0,1,1,-2.739,0A2.739,2.739,0,1,1,2.739,0" fill="#CD5C5C" stroke-width="2" opacity="0.7"/><path aria-label="Observed L_ij (in thousands): 60.779; Predicted L_ij (in thousands): 98.1041862116; county_i_name: Los Angeles; county_j_name: San Bernardino; L_ij_data: 60.779; L_ij_eq: 98.1041862116" role="graphics-symbol" aria-roledescription="circle" transform="translate(196.07877328442277,158.7672853791616)" d="M2.739,0A2.739,2.739,0,1,1,-2.739,0A2.739,2.739,0,1,1,2.739,0" fill="#CD5C5C" stroke-width="2" opacity="0.7"/><path aria-label="Observed L_ij (in thousands): 12.934; Predicted L_ij (in thousands): 71.3656431701; county_i_name: Orange; county_j_name: San Bernardino; L_ij_data: 12.934; L_ij_eq: 71.3656431701" role="graphics-symbol" aria-roledescription="circle" transform="translate(125.26460829310817,171.85017831052153)" d="M2.739,0A2.739,2.739,0,1,1,-2.739,0A2.739,2.739,0,1,1,2.739,0" fill="#CD5C5C" stroke-width="2" opacity="0.7"/><path aria-label="Observed L_ij (in thousands): 113.716; Predicted L_ij (in thousands): 259.187688755; county_i_name: Riverside; county_j_name: San Bernardino; L_ij_data: 113.716; L_ij_eq: 259.187688755" role="graphics-symbol" aria-roledescription="circle" transform="translate(225.5077780719936,118.60693766694148)" d="M2.739,0A2.739,2.739,0,1,1,-2.739,0A2.739,2.739,0,1,1,2.739,0" fill="#CD5C5C" stroke-width="2" opacity="0.7"/><path aria-label="Observed L_ij (in thousands): 657.249; Predicted L_ij (in thousands): 553.367855336; county_i_name: San Bernardino; county_j_name: San Bernardino; L_ij_data: 657.249; L_ij_eq: 553.367855336" role="graphics-symbol" aria-roledescription="circle" transform="translate(308.5849237526549,87.13438676681238)" d="M2.739,0A2.739,2.739,0,1,1,-2.739,0A2.739,2.739,0,1,1,2.739,0" fill="#CD5C5C" stroke-width="2" opacity="0.7"/><path aria-label="Observed L_ij (in thousands): 1.209; Predicted L_ij (in thousands): 2.12640433359; county_i_name: San Diego; county_j_name: San Bernardino; L_ij_data: 1.209; L_ij_eq: 2.12640433359" role="graphics-symbol" aria-roledescription="circle" transform="translate(37.68591319841152,302.57291409094967)" d="M2.739,0A2.739,2.739,0,1,1,-2.739,0A2.739,2.739,0,1,1,2.739,0" fill="#CD5C5C" stroke-width="2" opacity="0.7"/><path aria-label="Observed L_ij (in thousands): 0.586; Predicted L_ij (in thousands): 0.127057850318; county_i_name: Ventura; county_j_name: San Bernardino; L_ij_data: 0.586; L_ij_eq: 0.127057850318" role="graphics-symbol" aria-roledescription="circle" transform="translate(21.93115143254465,345.0233684424473)" d="M2.739,0A2.739,2.739,0,1,1,-2.739,0A2.739,2.739,0,1,1,2.739,0" fill="#CD5C5C" stroke-width="2" opacity="0.7"/><path aria-label="Observed L_ij (in thousands): 4.724; Predicted L_ij (in thousands): 2.23456435623; county_i_name: Los Angeles; county_j_name: San Diego; L_ij_data: 4.724; L_ij_eq: 2.23456435623" role="graphics-symbol" aria-roledescription="circle" transform="translate(82.96036523647865,301.157833040993)" d="M2.739,0A2.739,2.739,0,1,1,-2.739,0A2.739,2.739,0,1,1,2.739,0" fill="#CD5C5C" stroke-width="2" opacity="0.7"/><path aria-label="Observed L_ij (in thousands): 12.094; Predicted L_ij (in thousands): 9.99053253759; county_i_name: Orange; county_j_name: San Diego; L_ij_data: 12.094; L_ij_eq: 9.99053253759" role="graphics-symbol" aria-roledescription="circle" transform="translate(122.30800434672008,250.26670166003606)" d="M2.739,0A2.739,2.739,0,1,1,-2.739,0A2.739,2.739,0,1,1,2.739,0" fill="#CD5C5C" stroke-width="2" opacity="0.7"/><path aria-label="Observed L_ij (in thousands): 47.073; Predicted L_ij (in thousands): 28.3157336915; county_i_name: Riverside; county_j_name: San Diego; L_ij_data: 47.073; L_ij_eq: 28.3157336915" role="graphics-symbol" aria-roledescription="circle" transform="translate(184.1509950792516,209.4465272643182)" d="M2.739,0A2.739,2.739,0,1,1,-2.739,0A2.739,2.739,0,1,1,2.739,0" fill="#CD5C5C" stroke-width="2" opacity="0.7"/><path aria-label="Observed L_ij (in thousands): 2.796; Predicted L_ij (in thousands): 2.41838676396; county_i_name: San Bernardino; county_j_name: San Diego; L_ij_data: 2.796; L_ij_eq: 2.41838676396" role="graphics-symbol" aria-roledescription="circle" transform="translate(63.430298581754364,298.85803015436187)" d="M2.739,0A2.739,2.739,0,1,1,-2.739,0A2.739,2.739,0,1,1,2.739,0" fill="#CD5C5C" stroke-width="2" opacity="0.7"/><path aria-label="Observed L_ij (in thousands): 1588.755; Predicted L_ij (in thousands): 1580.36345482; county_i_name: San Diego; county_j_name: San Diego; L_ij_data: 1588.755; L_ij_eq: 1580.36345482" role="graphics-symbol" aria-roledescription="circle" transform="translate(350.5129391722877,43.521382845425855)" d="M2.739,0A2.739,2.739,0,1,1,-2.739,0A2.739,2.739,0,1,1,2.739,0" fill="#CD5C5C" stroke-width="2" opacity="0.7"/><path aria-label="Observed L_ij (in thousands): 0.333; Predicted L_ij (in thousands): 0.00396819327961; county_i_name: Ventura; county_j_name: San Diego; L_ij_data: 0.333; L_ij_eq: 0.00396819327961" role="graphics-symbol" aria-roledescription="circle" transform="translate(13.667625593319755,349.83522227452835)" d="M2.739,0A2.739,2.739,0,1,1,-2.739,0A2.739,2.739,0,1,1,2.739,0" fill="#CD5C5C" stroke-width="2" opacity="0.7"/><path aria-label="Observed L_ij (in thousands): 34.298; Predicted L_ij (in thousands): 218.630922884; county_i_name: Los Angeles; county_j_name: Ventura; L_ij_data: 34.298; L_ij_eq: 218.630922884" role="graphics-symbol" aria-roledescription="circle" transform="translate(169.46281776763067,125.65743347663312)" d="M2.739,0A2.739,2.739,0,1,1,-2.739,0A2.739,2.739,0,1,1,2.739,0" fill="#CD5C5C" stroke-width="2" opacity="0.7"/><path aria-label="Observed L_ij (in thousands): 0.605; Predicted L_ij (in thousands): 6.73126486103; county_i_name: Orange; county_j_name: Ventura; L_ij_data: 0.605; L_ij_eq: 6.73126486103" role="graphics-symbol" aria-roledescription="circle" transform="translate(22.497416562703563,264.9024372096684)" d="M2.739,0A2.739,2.739,0,1,1,-2.739,0A2.739,2.739,0,1,1,2.739,0" fill="#CD5C5C" stroke-width="2" opacity="0.7"/><path aria-label="Observed L_ij (in thousands): 0.824; Predicted L_ij (in thousands): 0.270178593439; county_i_name: Riverside; county_j_name: Ventura; L_ij_data: 0.824; L_ij_eq: 0.270178593439" role="graphics-symbol" aria-roledescription="circle" transform="translate(28.579551641315593,340.0493836964483)" d="M2.739,0A2.739,2.739,0,1,1,-2.739,0A2.739,2.739,0,1,1,2.739,0" fill="#CD5C5C" stroke-width="2" opacity="0.7"/><path aria-label="Observed L_ij (in thousands): 0.512; Predicted L_ij (in thousands): 1.23960602149; county_i_name: San Bernardino; county_j_name: Ventura; L_ij_data: 0.512; L_ij_eq: 1.23960602149" role="graphics-symbol" aria-roledescription="circle" transform="translate(19.65908610843387,316.45231245549826)" d="M2.739,0A2.739,2.739,0,1,1,-2.739,0A2.739,2.739,0,1,1,2.739,0" fill="#CD5C5C" stroke-width="2" opacity="0.7"/><path aria-label="Observed L_ij (in thousands): 0.295; Predicted L_ij (in thousands): 0.0340404335401; county_i_name: San Diego; county_j_name: Ventura; L_ij_data: 0.295; L_ij_eq: 0.0340404335401" role="graphics-symbol" aria-roledescription="circle" transform="translate(12.29239224162626,348.6072537637421)" d="M2.739,0A2.739,2.739,0,1,1,-2.739,0A2.739,2.739,0,1,1,2.739,0" fill="#CD5C5C" stroke-width="2" opacity="0.7"/><path aria-label="Observed L_ij (in thousands): 321.696; Predicted L_ij (in thousands): 377.235076456; county_i_name: Ventura; county_j_name: Ventura; L_ij_data: 321.696; L_ij_eq: 377.235076456" role="graphics-symbol" aria-roledescription="circle" transform="translate(274.68725730297473,103.04124907769463)" d="M2.739,0A2.739,2.739,0,1,1,-2.739,0A2.739,2.739,0,1,1,2.739,0" fill="#CD5C5C" stroke-width="2" opacity="0.7"/></g><g class="mark-group role-title"><g transform="translate(200,-18)"><path class="background" aria-hidden="true" d="M0,0h0v0h0Z" pointer-events="none"/><g><g class="mark-text role-title-text" role="graphics-symbol" aria-roledescription="title" aria-label="Title text 'Observed vs Predicted Commuting Flows'" pointer-events="none"><text text-anchor="middle" transform="translate(0,10)" font-family="sans-serif" font-size="13px" font-weight="bold" fill="#000" opacity="1">Observed vs Predicted Commuting Flows</text></g></g><path class="foreground" aria-hidden="true" d="" pointer-events="none" display="none"/></g></g></g><path class="foreground" aria-hidden="true" d="" display="none"/></g></g></g></svg>