<svg xmlns="http://www.w3.org/2000/svg" xmlns:xlink="http://www.w3.org/1999/xlink" version="1.1" class="marks" width="478" height="414" viewBox="0 0 478 414"><rect width="478" height="414" fill="white"/><g fill="none" stroke-miterlimit="10" transform="translate(72,27)"><g class="mark-group role-frame root" role="graphics-object" aria-roledescription="group mark container"><g transform="translate(0,0)"><path class="background" aria-hidden="true" d="M0.5,0.5h400v350h-400Z" stroke="#ddd"/><g><g class="mark-group role-axis" aria-hidden="true"><g transform="translate(0.5,350.5)"><path class="background" aria-hidden="true" d="M0,0h0v0h0Z" pointer-events="none"/><g><g class="mark-rule role-axis-grid" pointer-events="none"><line transform="translate(0,-350)" x2="0" y2="350" stroke="#ddd" stroke-width="1" opacity="1"/><line transform="translate(50,-350)" x2="0" y2="350" stroke="#ddd" stroke-width="1" opacity="1"/><line transform="translate(100,-350)" x2="0" y2="350" stroke="#ddd" stroke-width="1" opacity="1"/><line transform="translate(150,-350)" x2="0" y2="350" stroke="#ddd" stroke-width="1" opacity="1"/><line transform="translate(200,-350)" x2="0" y2="350" stroke="#ddd" stroke-width="1" opacity="1"/><line transform="translate(250,-350)" x2="0" y2="350" stroke="#ddd" stroke-width="1" opacity="1"/><line transform="translate(300,-350)" x2="0" y2="350" stroke="#ddd" stroke-width="1" opacity="1"/><line transform="translate(350,-350)" x2="0" y2="350" stroke="#ddd" stroke-width="1" opacity="1"/><line transform="translate(400,-350)" x2="0" y2="350" stroke="#ddd" stroke-width="1" opacity="1"/></g></g><path class="foreground" aria-hidden="true" d="" pointer-events="none" display="none"/></g></g><g class="mark-group role-axis" aria-hidden="true"><g transform="translate(0.5,0.5)"><path class="background" aria-hidden="true" d="M0,0h0v0h0Z" pointer-events="none"/><g><g class="mark-rule role-axis-grid" pointer-events="none"><line transform="translate(0,350)" x2="400" y2="0" stroke="#ddd" stroke-width="1" opacity="1"/><line transform="translate(0,306)" x2="400" y2="0" stroke="#ddd" stroke-width="1" opacity="1"/><line transform="translate(0,263)" x2="400" y2="0" stroke="#ddd" stroke-width="1" opacity="1"/><line transform="translate(0,219)" x2="400" y2="0" stroke="#ddd" stroke-width="1" opacity="1"/><line transform="translate(0,175)" x2="400" y2="0" stroke="#ddd" stroke-width="1" opacity="1"/><line transform="translate(0,131)" x2="400" y2="0" stroke="#ddd" stroke-width="1" opacity="1"/><line transform="translate(0,88)" x2="400" y2="0" stroke="#ddd" stroke-width="1" opacity="1"/><line transform="translate(0,44)" x2="400" y2="0" stroke="#ddd" stroke-width="1" opacity="1"/><line transform="translate(0,0)" x2="400" y2="0" stroke="#ddd" stroke-width="1" opacity="1"/></g></g><path class="foreground" aria-hidden="true" d="" pointer-events="none" display="none"/></g></g><g class="mark-group role-axis" role="graphics-symbol" aria-roledescription="axis" aria-label="X-axis titled 'Observed L_ij' for a linear scale with values from 0 to 8,000,000"><g transform="translate(0.5,350.5)"><path class="background" aria-hidden="true" d="M0,0h0v0h0Z" pointer-events="none"/><g><g class="mark-rule role-axis-tick" pointer-events="none"><line transform="translate(0,0)" x2="0" y2="5" stroke="#888" stroke-width="1" opacity="1"/><line transform="translate(50,0)" x2="0" y2="5" stroke="#888" stroke-width="1" opacity="1"/><line transform="translate(100,0)" x2="0" y2="5" stroke="#888" stroke-width="1" opacity="1"/><line transform="translate(150,0)" x2="0" y2="5" stroke="#888" stroke-width="1" opacity="1"/><line transform="translate(200,0)" x2="0" y2="5" stroke="#888" stroke-width="1" opacity="1"/><line transform="translate(250,0)" x2="0" y2="5" stroke="#888" stroke-width="1" opacity="1"/><line transform="translate(300,0)" x2="0" y2="5" stroke="#888" stroke-width="1" opacity="1"/><line transform="translate(350,0)" x2="0" y2="5" stroke="#888" stroke-width="1" opacity="1"/><line transform="translate(400,0)" x2="0" y2="5" stroke="#888" stroke-width="1" opacity="1"/></g><g class="mark-text role-axis-label" pointer-events="none"><text text-anchor="start" transform="translate(0,15)" font-family="sans-serif" font-size="10px" fill="#000" opacity="1">0</text><text text-anchor="middle" transform="translate(50,15)" font-family="sans-serif" font-size="10px" fill="#000" opacity="0">1,000,000</text><text text-anchor="middle" transform="translate(100,15)" font-family="sans-serif" font-size="10px" fill="#000" opacity="1">2,000,000</text><text text-anchor="middle" transform="translate(150,15)" font-family="sans-serif" font-size="10px" fill="#000" opacity="0">3,000,000</text><text text-anchor="middle" transform="translate(200,15)" font-family="sans-serif" font-size="10px" fill="#000" opacity="1">4,000,000</text><text text-anchor="middle" transform="translate(250,15)" font-family="sans-serif" font-size="10px" fill="#000" opacity="0">5,000,000</text><text text-anchor="middle" transform="translate(300,15)" font-family="sans-serif" font-size="10px" fill="#000" opacity="1">6,000,000</text><text text-anchor="middle" transform="translate(350,15)" font-family="sans-serif" font-size="10px" fill="#000" opacity="0">7,000,000</text><text text-anchor="end" transform="translate(400,15)" font-family="sans-serif" font-size="10px" fill="#000" opacity="1">8,000,000</text></g><g class="mark-rule role-axis-domain" pointer-events="none"><line transform="translate(0,0)" x2="400" y2="0" stroke="#888" stroke-width="1" opacity="1"/></g><g class="mark-text role-axis-title" pointer-events="none"><text text-anchor="middle" transform="translate(200,30)" font-family="sans-serif" font-size="11px" font-weight="bold" fill="#000" opacity="1">Observed L_ij</text></g></g><path class="foreground" aria-hidden="true" d="" pointer-events="none" display="none"/></g></g><g class="mark-group role-axis" role="graphics-symbol" aria-roledescription="axis" aria-label="Y-axis titled 'Predicted L_ij' for a linear scale with values from 0 to 8,000,000"><g transform="translate(0.5,0.5)"><path class="background" aria-hidden="true" d="M0,0h0v0h0Z" pointer-events="none"/><g><g class="mark-rule role-axis-tick" pointer-events="none"><line transform="translate(0,350)" x2="-5" y2="0" stroke="#888" stroke-width="1" opacity="1"/><line transform="translate(0,306)" x2="-5" y2="0" stroke="#888" stroke-width="1" opacity="1"/><line transform="translate(0,263)" x2="-5" y2="0" stroke="#888" stroke-width="1" opacity="1"/><line transform="translate(0,219)" x2="-5" y2="0" stroke="#888" stroke-width="1" opacity="1"/><line transform="translate(0,175)" x2="-5" y2="0" stroke="#888" stroke-width="1" opacity="1"/><line transform="translate(0,131)" x2="-5" y2="0" stroke="#888" stroke-width="1" opacity="1"/><line transform="translate(0,88)" x2="-5" y2="0" stroke="#888" stroke-width="1" opacity="1"/><line transform="translate(0,44)" x2="-5" y2="0" stroke="#888" stroke-width="1" opacity="1"/><line transform="translate(0,0)" x2="-5" y2="0" stroke="#888" stroke-width="1" opacity="1"/></g><g class="mark-text role-axis-label" pointer-events="none"><text text-anchor="end" transform="translate(-7,353)" font-family="sans-serif" font-size="10px" fill="#000" opacity="1">0</text><text text-anchor="end" transform="translate(-7,309.25)" font-family="sans-serif" font-size="10px" fill="#000" opacity="1">1,000,000</text><text text-anchor="end" transform="translate(-7,265.5)" font-family="sans-serif" font-size="10px" fill="#000" opacity="1">2,000,000</text><text text-anchor="end" transform="translate(-7,221.75)" font-family="sans-serif" font-size="10px" fill="#000" opacity="1">3,000,000</text><text text-anchor="end" transform="translate(-7,178)" font-family="sans-serif" font-size="10px" fill="#000" opacity="1">4,000,000</text><text text-anchor="end" transform="translate(-7,134.25)" font-family="sans-serif" font-size="10px" fill="#000" opacity="1">5,000,000</text><text text-anchor="end" transform="translate(-7,90.5)" font-family="sans-serif" font-size="10px" fill="#000" opacity="1">6,000,000</text><text text-anchor="end" transform="translate(-7,46.75)" font-family="sans-serif" font-size="10px" fill="#000" opacity="1">7,000,000</text><text text-anchor="end" transform="translate(-7,3)" font-family="sans-serif" font-size="10px" fill="#000" opacity="1">8,000,000</text></g><g class="mark-rule role-axis-domain" pointer-events="none"><line transform="translate(0,350)" x2="0" y2="-350" stroke="#888" stroke-width="1" opacity="1"/></g><g class="mark-text role-axis-title" pointer-events="none"><text text-anchor="middle" transform="translate(-55.4873046875,175) rotate(-90) translate(0,-2)" font-family="sans-serif" font-size="11px" font-weight="bold" fill="#000" opacity="1">Predicted L_ij</text></g></g><path class="foreground" aria-hidden="true" d="" pointer-events="none" display="none"/></g></g><g class="mark-line role-mark layer_0_marks" role="graphics-object" aria-roledescription="line mark container"><path aria-label="x: 0; y: 0" role="graphics-symbol" aria-roledescription="line mark" d="M0,350L379.689,17.772" stroke="#898989" stroke-width="0.5" stroke-dasharray="5,5"/></g><g class="mark-symbol role-mark layer_1_marks" role="graphics-object" aria-roledescription="symbol mark container"><path aria-label="Observed L_ij: 4429523; Predicted L_ij: 7593773.00177; county_i_name: Los Angeles; county_j_name: Los Angeles; L_ij_data: 4429523; predicted_L_ij_eq: 7593773.00177" role="graphics-symbol" aria-roledescription="circle" transform="translate(221.47615,17.772431172733988)" d="M2.739,0A2.739,2.739,0,1,1,-2.739,0A2.739,2.739,0,1,1,2.739,0" fill="#CD5C5C" stroke-width="2" opacity="0.7"/><path aria-label="Observed L_ij: 180250; Predicted L_ij: 527357.637388; county_i_name: Orange; county_j_name: Los Angeles; L_ij_data: 180250; predicted_L_ij_eq: 527357.637388" role="graphics-symbol" aria-roledescription="circle" transform="translate(9.0125,326.9281033642668)" d="M2.739,0A2.739,2.739,0,1,1,-2.739,0A2.739,2.739,0,1,1,2.739,0" fill="#CD5C5C" stroke-width="2" opacity="0.7"/><path aria-label="Observed L_ij: 53172; Predicted L_ij: 31442.1812761; county_i_name: Riverside; county_j_name: Los Angeles; L_ij_data: 53172; predicted_L_ij_eq: 31442.1812761" role="graphics-symbol" aria-roledescription="circle" transform="translate(2.6586,348.6244045691695)" d="M2.739,0A2.739,2.739,0,1,1,-2.739,0A2.739,2.739,0,1,1,2.739,0" fill="#CD5C5C" stroke-width="2" opacity="0.7"/><path aria-label="Observed L_ij: 132992; Predicted L_ij: 118249.062997; county_i_name: San Bernardino; county_j_name: Los Angeles; L_ij_data: 132992; predicted_L_ij_eq: 118249.062997" role="graphics-symbol" aria-roledescription="circle" transform="translate(6.6495999999999995,344.8266034938773)" d="M2.739,0A2.739,2.739,0,1,1,-2.739,0A2.739,2.739,0,1,1,2.739,0" fill="#CD5C5C" stroke-width="2" opacity="0.7"/><path aria-label="Observed L_ij: 6075; Predicted L_ij: 2008.71252402; county_i_name: San Diego; county_j_name: Los Angeles; L_ij_data: 6075; predicted_L_ij_eq: 2008.71252402" role="graphics-symbol" aria-roledescription="circle" transform="translate(0.30374999999999996,349.912118827074)" d="M2.739,0A2.739,2.739,0,1,1,-2.739,0A2.739,2.739,0,1,1,2.739,0" fill="#CD5C5C" stroke-width="2" opacity="0.7"/><path aria-label="Observed L_ij: 66180; Predicted L_ij: 23733.4164032; county_i_name: Ventura; county_j_name: Los Angeles; L_ij_data: 66180; predicted_L_ij_eq: 23733.4164032" role="graphics-symbol" aria-roledescription="circle" transform="translate(3.309,348.96166303236174)" d="M2.739,0A2.739,2.739,0,1,1,-2.739,0A2.739,2.739,0,1,1,2.739,0" fill="#CD5C5C" stroke-width="2" opacity="0.7"/><path aria-label="Observed L_ij: 196169; Predicted L_ij: 1551109.71491; county_i_name: Los Angeles; county_j_name: Orange; L_ij_data: 196169; predicted_L_ij_eq: 1551109.71491" role="graphics-symbol" aria-roledescription="circle" transform="translate(9.80845,282.138949972646)" d="M2.739,0A2.739,2.739,0,1,1,-2.739,0A2.739,2.739,0,1,1,2.739,0" fill="#CD5C5C" stroke-width="2" opacity="0.7"/><path aria-label="Observed L_ij: 1325458; Predicted L_ij: 2362683.08738; county_i_name: Orange; county_j_name: Orange; L_ij_data: 1325458; predicted_L_ij_eq: 2362683.08738" role="graphics-symbol" aria-roledescription="circle" transform="translate(66.2729,246.63261492723416)" d="M2.739,0A2.739,2.739,0,1,1,-2.739,0A2.739,2.739,0,1,1,2.739,0" fill="#CD5C5C" stroke-width="2" opacity="0.7"/><path aria-label="Observed L_ij: 75863; Predicted L_ij: 222824.556131; county_i_name: Riverside; county_j_name: Orange; L_ij_data: 75863; predicted_L_ij_eq: 222824.556131" role="graphics-symbol" aria-roledescription="circle" transform="translate(3.79315,340.25142566928315)" d="M2.739,0A2.739,2.739,0,1,1,-2.739,0A2.739,2.739,0,1,1,2.739,0" fill="#CD5C5C" stroke-width="2" opacity="0.7"/><path aria-label="Observed L_ij: 37327; Predicted L_ij: 249558.162742; county_i_name: San Bernardino; county_j_name: Orange; L_ij_data: 37327; predicted_L_ij_eq: 249558.162742" role="graphics-symbol" aria-roledescription="circle" transform="translate(1.86635,339.0818303800302)" d="M2.739,0A2.739,2.739,0,1,1,-2.739,0A2.739,2.739,0,1,1,2.739,0" fill="#CD5C5C" stroke-width="2" opacity="0.7"/><path aria-label="Observed L_ij: 12120; Predicted L_ij: 26054.6945392; county_i_name: San Diego; county_j_name: Orange; L_ij_data: 12120; predicted_L_ij_eq: 26054.6945392" role="graphics-symbol" aria-roledescription="circle" transform="translate(0.606,348.8601071139109)" d="M2.739,0A2.739,2.739,0,1,1,-2.739,0A2.739,2.739,0,1,1,2.739,0" fill="#CD5C5C" stroke-width="2" opacity="0.7"/><path aria-label="Observed L_ij: 576; Predicted L_ij: 2119.9117278; county_i_name: Ventura; county_j_name: Orange; L_ij_data: 576; predicted_L_ij_eq: 2119.9117278" role="graphics-symbol" aria-roledescription="circle" transform="translate(0.0288,349.9072538619087)" d="M2.739,0A2.739,2.739,0,1,1,-2.739,0A2.739,2.739,0,1,1,2.739,0" fill="#CD5C5C" stroke-width="2" opacity="0.7"/><path aria-label="Observed L_ij: 16786; Predicted L_ij: 41332.2731493; county_i_name: Los Angeles; county_j_name: Riverside; L_ij_data: 16786; predicted_L_ij_eq: 41332.2731493" role="graphics-symbol" aria-roledescription="circle" transform="translate(0.8392999999999999,348.1917130497171)" d="M2.739,0A2.739,2.739,0,1,1,-2.739,0A2.739,2.739,0,1,1,2.739,0" fill="#CD5C5C" stroke-width="2" opacity="0.7"/><path aria-label="Observed L_ij: 16208; Predicted L_ij: 99586.9417613; county_i_name: Orange; county_j_name: Riverside; L_ij_data: 16208; predicted_L_ij_eq: 99586.9417613" role="graphics-symbol" aria-roledescription="circle" transform="translate(0.8104,345.6430712979421)" d="M2.739,0A2.739,2.739,0,1,1,-2.739,0A2.739,2.739,0,1,1,2.739,0" fill="#CD5C5C" stroke-width="2" opacity="0.7"/><path aria-label="Observed L_ij: 725518; Predicted L_ij: 1531319.88557; county_i_name: Riverside; county_j_name: Riverside; L_ij_data: 725518; predicted_L_ij_eq: 1531319.88557" role="graphics-symbol" aria-roledescription="circle" transform="translate(36.2759,283.0047550061686)" d="M2.739,0A2.739,2.739,0,1,1,-2.739,0A2.739,2.739,0,1,1,2.739,0" fill="#CD5C5C" stroke-width="2" opacity="0.7"/><path aria-label="Observed L_ij: 78508; Predicted L_ij: 484760.679398; county_i_name: San Bernardino; county_j_name: Riverside; L_ij_data: 78508; predicted_L_ij_eq: 484760.679398" role="graphics-symbol" aria-roledescription="circle" transform="translate(3.9254,328.7917202763458)" d="M2.739,0A2.739,2.739,0,1,1,-2.739,0A2.739,2.739,0,1,1,2.739,0" fill="#CD5C5C" stroke-width="2" opacity="0.7"/><path aria-label="Observed L_ij: 6989; Predicted L_ij: 39496.2249262; county_i_name: San Diego; county_j_name: Riverside; L_ij_data: 6989; predicted_L_ij_eq: 39496.2249262" role="graphics-symbol" aria-roledescription="circle" transform="translate(0.34945000000000004,348.2720401594806)" d="M2.739,0A2.739,2.739,0,1,1,-2.739,0A2.739,2.739,0,1,1,2.739,0" fill="#CD5C5C" stroke-width="2" opacity="0.7"/><path aria-label="Observed L_ij: 177; Predicted L_ij: 45.5095410044; county_i_name: Ventura; county_j_name: Riverside; L_ij_data: 177; predicted_L_ij_eq: 45.5095410044" role="graphics-symbol" aria-roledescription="circle" transform="translate(0.00885,349.9980089575811)" d="M2.739,0A2.739,2.739,0,1,1,-2.739,0A2.739,2.739,0,1,1,2.739,0" fill="#CD5C5C" stroke-width="2" opacity="0.7"/><path aria-label="Observed L_ij: 60779; Predicted L_ij: 203740.249531; county_i_name: Los Angeles; county_j_name: San Bernardino; L_ij_data: 60779; predicted_L_ij_eq: 203740.249531" role="graphics-symbol" aria-roledescription="circle" transform="translate(3.03895,341.0863640830349)" d="M2.739,0A2.739,2.739,0,1,1,-2.739,0A2.739,2.739,0,1,1,2.739,0" fill="#CD5C5C" stroke-width="2" opacity="0.7"/><path aria-label="Observed L_ij: 12934; Predicted L_ij: 146188.640518; county_i_name: Orange; county_j_name: San Bernardino; L_ij_data: 12934; predicted_L_ij_eq: 146188.640518" role="graphics-symbol" aria-roledescription="circle" transform="translate(0.6466999999999999,343.6042469773554)" d="M2.739,0A2.739,2.739,0,1,1,-2.739,0A2.739,2.739,0,1,1,2.739,0" fill="#CD5C5C" stroke-width="2" opacity="0.7"/><path aria-label="Observed L_ij: 113716; Predicted L_ij: 635374.655946; county_i_name: Riverside; county_j_name: San Bernardino; L_ij_data: 113716; predicted_L_ij_eq: 635374.655946" role="graphics-symbol" aria-roledescription="circle" transform="translate(5.6857999999999995,322.2023588023511)" d="M2.739,0A2.739,2.739,0,1,1,-2.739,0A2.739,2.739,0,1,1,2.739,0" fill="#CD5C5C" stroke-width="2" opacity="0.7"/><path aria-label="Observed L_ij: 657249; Predicted L_ij: 1338932.1935; county_i_name: San Bernardino; county_j_name: San Bernardino; L_ij_data: 657249; predicted_L_ij_eq: 1338932.1935" role="graphics-symbol" aria-roledescription="circle" transform="translate(32.862449999999995,291.42171653429926)" d="M2.739,0A2.739,2.739,0,1,1,-2.739,0A2.739,2.739,0,1,1,2.739,0" fill="#CD5C5C" stroke-width="2" opacity="0.7"/><path aria-label="Observed L_ij: 1209; Predicted L_ij: 4364.00425407; county_i_name: San Diego; county_j_name: San Bernardino; L_ij_data: 1209; predicted_L_ij_eq: 4364.00425407" role="graphics-symbol" aria-roledescription="circle" transform="translate(0.060450000000000004,349.80907481388437)" d="M2.739,0A2.739,2.739,0,1,1,-2.739,0A2.739,2.739,0,1,1,2.739,0" fill="#CD5C5C" stroke-width="2" opacity="0.7"/><path aria-label="Observed L_ij: 586; Predicted L_ij: 270.126278789; county_i_name: Ventura; county_j_name: San Bernardino; L_ij_data: 586; predicted_L_ij_eq: 270.126278789" role="graphics-symbol" aria-roledescription="circle" transform="translate(0.029300000000000003,349.988181975303)" d="M2.739,0A2.739,2.739,0,1,1,-2.739,0A2.739,2.739,0,1,1,2.739,0" fill="#CD5C5C" stroke-width="2" opacity="0.7"/><path aria-label="Observed L_ij: 4724; Predicted L_ij: 4640.68575574; county_i_name: Los Angeles; county_j_name: San Diego; L_ij_data: 4724; predicted_L_ij_eq: 4640.68575574" role="graphics-symbol" aria-roledescription="circle" transform="translate(0.2362,349.79696999818646)" d="M2.739,0A2.739,2.739,0,1,1,-2.739,0A2.739,2.739,0,1,1,2.739,0" fill="#CD5C5C" stroke-width="2" opacity="0.7"/><path aria-label="Observed L_ij: 12094; Predicted L_ij: 20465.0628067; county_i_name: Orange; county_j_name: San Diego; L_ij_data: 12094; predicted_L_ij_eq: 20465.0628067" role="graphics-symbol" aria-roledescription="circle" transform="translate(0.6047,349.10465350220744)" d="M2.739,0A2.739,2.739,0,1,1,-2.739,0A2.739,2.739,0,1,1,2.739,0" fill="#CD5C5C" stroke-width="2" opacity="0.7"/><path aria-label="Observed L_ij: 47073; Predicted L_ij: 69413.403231; county_i_name: Riverside; county_j_name: San Diego; L_ij_data: 47073; predicted_L_ij_eq: 69413.403231" role="graphics-symbol" aria-roledescription="circle" transform="translate(2.35365,346.9631636086423)" d="M2.739,0A2.739,2.739,0,1,1,-2.739,0A2.739,2.739,0,1,1,2.739,0" fill="#CD5C5C" stroke-width="2" opacity="0.7"/><path aria-label="Observed L_ij: 2796; Predicted L_ij: 5851.5431704; county_i_name: San Bernardino; county_j_name: San Diego; L_ij_data: 2796; predicted_L_ij_eq: 5851.5431704" role="graphics-symbol" aria-roledescription="circle" transform="translate(0.13979999999999998,349.743994986295)" d="M2.739,0A2.739,2.739,0,1,1,-2.739,0A2.739,2.739,0,1,1,2.739,0" fill="#CD5C5C" stroke-width="2" opacity="0.7"/><path aria-label="Observed L_ij: 1588755; Predicted L_ij: 3243368.50282; county_i_name: San Diego; county_j_name: San Diego; L_ij_data: 1588755; predicted_L_ij_eq: 3243368.50282" role="graphics-symbol" aria-roledescription="circle" transform="translate(79.43775,208.10262800159444)" d="M2.739,0A2.739,2.739,0,1,1,-2.739,0A2.739,2.739,0,1,1,2.739,0" fill="#CD5C5C" stroke-width="2" opacity="0.7"/><path aria-label="Observed L_ij: 333; Predicted L_ij: 8.43641917013; county_i_name: Ventura; county_j_name: San Diego; L_ij_data: 333; predicted_L_ij_eq: 8.43641917013" role="graphics-symbol" aria-roledescription="circle" transform="translate(0.01665,349.9996309066613)" d="M2.739,0A2.739,2.739,0,1,1,-2.739,0A2.739,2.739,0,1,1,2.739,0" fill="#CD5C5C" stroke-width="2" opacity="0.7"/><path aria-label="Observed L_ij: 34298; Predicted L_ij: 454047.074887; county_i_name: Los Angeles; county_j_name: Ventura; L_ij_data: 34298; predicted_L_ij_eq: 454047.074887" role="graphics-symbol" aria-roledescription="circle" transform="translate(1.7149,330.13544047368157)" d="M2.739,0A2.739,2.739,0,1,1,-2.739,0A2.739,2.739,0,1,1,2.739,0" fill="#CD5C5C" stroke-width="2" opacity="0.7"/><path aria-label="Observed L_ij: 605; Predicted L_ij: 13788.6301487; county_i_name: Orange; county_j_name: Ventura; L_ij_data: 605; predicted_L_ij_eq: 13788.6301487" role="graphics-symbol" aria-roledescription="circle" transform="translate(0.03025,349.39674743099414)" d="M2.739,0A2.739,2.739,0,1,1,-2.739,0A2.739,2.739,0,1,1,2.739,0" fill="#CD5C5C" stroke-width="2" opacity="0.7"/><path aria-label="Observed L_ij: 824; Predicted L_ij: 662.31784262; county_i_name: Riverside; county_j_name: Ventura; L_ij_data: 824; predicted_L_ij_eq: 662.31784262" role="graphics-symbol" aria-roledescription="circle" transform="translate(0.0412,349.9710235943854)" d="M2.739,0A2.739,2.739,0,1,1,-2.739,0A2.739,2.739,0,1,1,2.739,0" fill="#CD5C5C" stroke-width="2" opacity="0.7"/><path aria-label="Observed L_ij: 512; Predicted L_ij: 2999.3581908; county_i_name: San Bernardino; county_j_name: Ventura; L_ij_data: 512; predicted_L_ij_eq: 2999.3581908" role="graphics-symbol" aria-roledescription="circle" transform="translate(0.025599999999999998,349.86877807915243)" d="M2.739,0A2.739,2.739,0,1,1,-2.739,0A2.739,2.739,0,1,1,2.739,0" fill="#CD5C5C" stroke-width="2" opacity="0.7"/><path aria-label="Observed L_ij: 295; Predicted L_ij: 69.8609358685; county_i_name: San Diego; county_j_name: Ventura; L_ij_data: 295; predicted_L_ij_eq: 69.8609358685" role="graphics-symbol" aria-roledescription="circle" transform="translate(0.014750000000000001,349.99694358405577)" d="M2.739,0A2.739,2.739,0,1,1,-2.739,0A2.739,2.739,0,1,1,2.739,0" fill="#CD5C5C" stroke-width="2" opacity="0.7"/><path aria-label="Observed L_ij: 321696; Predicted L_ij: 802005.59963; county_i_name: Ventura; county_j_name: Ventura; L_ij_data: 321696; predicted_L_ij_eq: 802005.59963" role="graphics-symbol" aria-roledescription="circle" transform="translate(16.084799999999998,314.91225501618413)" d="M2.739,0A2.739,2.739,0,1,1,-2.739,0A2.739,2.739,0,1,1,2.739,0" fill="#CD5C5C" stroke-width="2" opacity="0.7"/></g><g class="mark-group role-title"><g transform="translate(200,-22)"><path class="background" aria-hidden="true" d="M0,0h0v0h0Z" pointer-events="none"/><g><g class="mark-text role-title-text" role="graphics-symbol" aria-roledescription="title" aria-label="Title text 'Observed vs Predicted Commuting Flows'" pointer-events="none"><text text-anchor="middle" transform="translate(0,10)" font-family="sans-serif" font-size="13px" font-weight="bold" fill="#000" opacity="1">Observed vs Predicted Commuting Flows</text></g></g><path class="foreground" aria-hidden="true" d="" pointer-events="none" display="none"/></g></g></g><path class="foreground" aria-hidden="true" d="" display="none"/></g></g></g></svg>