<svg xmlns="http://www.w3.org/2000/svg" xmlns:xlink="http://www.w3.org/1999/xlink" version="1.1" class="marks" width="459" height="414" viewBox="0 0 459 414"><rect width="459" height="414" fill="white"/><g fill="none" stroke-miterlimit="10" transform="translate(53,27)"><g class="mark-group role-frame root" role="graphics-object" aria-roledescription="group mark container"><g transform="translate(0,0)"><path class="background" aria-hidden="true" d="M0.5,0.5h400v350h-400Z" stroke="#ddd"/><g><g class="mark-group role-axis" aria-hidden="true"><g transform="translate(0.5,350.5)"><path class="background" aria-hidden="true" d="M0,0h0v0h0Z" pointer-events="none"/><g><g class="mark-rule role-axis-grid" pointer-events="none"><line transform="translate(0,-350)" x2="0" y2="350" stroke="#ddd" stroke-width="1" opacity="1"/><line transform="translate(44,-350)" x2="0" y2="350" stroke="#ddd" stroke-width="1" opacity="1"/><line transform="translate(89,-350)" x2="0" y2="350" stroke="#ddd" stroke-width="1" opacity="1"/><line transform="translate(133,-350)" x2="0" y2="350" stroke="#ddd" stroke-width="1" opacity="1"/><line transform="translate(178,-350)" x2="0" y2="350" stroke="#ddd" stroke-width="1" opacity="1"/><line transform="translate(222,-350)" x2="0" y2="350" stroke="#ddd" stroke-width="1" opacity="1"/><line transform="translate(267,-350)" x2="0" y2="350" stroke="#ddd" stroke-width="1" opacity="1"/><line transform="translate(311,-350)" x2="0" y2="350" stroke="#ddd" stroke-width="1" opacity="1"/><line transform="translate(356,-350)" x2="0" y2="350" stroke="#ddd" stroke-width="1" opacity="1"/><line transform="translate(400,-350)" x2="0" y2="350" stroke="#ddd" stroke-width="1" opacity="1"/></g></g><path class="foreground" aria-hidden="true" d="" pointer-events="none" display="none"/></g></g><g class="mark-group role-axis" aria-hidden="true"><g transform="translate(0.5,0.5)"><path class="background" aria-hidden="true" d="M0,0h0v0h0Z" pointer-events="none"/><g><g class="mark-rule role-axis-grid" pointer-events="none"><line transform="translate(0,350)" x2="400" y2="0" stroke="#ddd" stroke-width="1" opacity="1"/><line transform="translate(0,311)" x2="400" y2="0" stroke="#ddd" stroke-width="1" opacity="1"/><line transform="translate(0,272)" x2="400" y2="0" stroke="#ddd" stroke-width="1" opacity="1"/><line transform="translate(0,233)" x2="400" y2="0" stroke="#ddd" stroke-width="1" opacity="1"/><line transform="translate(0,194)" x2="400" y2="0" stroke="#ddd" stroke-width="1" opacity="1"/><line transform="translate(0,156)" x2="400" y2="0" stroke="#ddd" stroke-width="1" opacity="1"/><line transform="translate(0,117)" x2="400" y2="0" stroke="#ddd" stroke-width="1" opacity="1"/><line transform="translate(0,78)" x2="400" y2="0" stroke="#ddd" stroke-width="1" opacity="1"/><line transform="translate(0,39)" x2="400" y2="0" stroke="#ddd" stroke-width="1" opacity="1"/><line transform="translate(0,0)" x2="400" y2="0" stroke="#ddd" stroke-width="1" opacity="1"/></g></g><path class="foreground" aria-hidden="true" d="" pointer-events="none" display="none"/></g></g><g class="mark-group role-axis" role="graphics-symbol" aria-roledescription="axis" aria-label="X-axis titled 'Observed L_ij (in thousands)' for a linear scale with values from 0 to 4,500"><g transform="translate(0.5,350.5)"><path class="background" aria-hidden="true" d="M0,0h0v0h0Z" pointer-events="none"/><g><g class="mark-rule role-axis-tick" pointer-events="none"><line transform="translate(0,0)" x2="0" y2="5" stroke="#888" stroke-width="1" opacity="1"/><line transform="translate(44,0)" x2="0" y2="5" stroke="#888" stroke-width="1" opacity="1"/><line transform="translate(89,0)" x2="0" y2="5" stroke="#888" stroke-width="1" opacity="1"/><line transform="translate(133,0)" x2="0" y2="5" stroke="#888" stroke-width="1" opacity="1"/><line transform="translate(178,0)" x2="0" y2="5" stroke="#888" stroke-width="1" opacity="1"/><line transform="translate(222,0)" x2="0" y2="5" stroke="#888" stroke-width="1" opacity="1"/><line transform="translate(267,0)" x2="0" y2="5" stroke="#888" stroke-width="1" opacity="1"/><line transform="translate(311,0)" x2="0" y2="5" stroke="#888" stroke-width="1" opacity="1"/><line transform="translate(356,0)" x2="0" y2="5" stroke="#888" stroke-width="1" opacity="1"/><line transform="translate(400,0)" x2="0" y2="5" stroke="#888" stroke-width="1" opacity="1"/></g><g class="mark-text role-axis-label" pointer-events="none"><text text-anchor="start" transform="translate(0,15)" font-family="sans-serif" font-size="10px" fill="#000" opacity="1">0</text><text text-anchor="middle" transform="translate(44.44444444444444,15)" font-family="sans-serif" font-size="10px" fill="#000" opacity="1">500</text><text text-anchor="middle" transform="translate(88.88888888888889,15)" font-family="sans-serif" font-size="10px" fill="#000" opacity="1">1,000</text><text text-anchor="middle" transform="translate(133.33333333333331,15)" font-family="sans-serif" font-size="10px" fill="#000" opacity="1">1,500</text><text text-anchor="middle" transform="translate(177.77777777777777,15)" font-family="sans-serif" font-size="10px" fill="#000" opacity="1">2,000</text><text text-anchor="middle" transform="translate(222.22222222222223,15)" font-family="sans-serif" font-size="10px" fill="#000" opacity="1">2,500</text><text text-anchor="middle" transform="translate(266.66666666666663,15)" font-family="sans-serif" font-size="10px" fill="#000" opacity="1">3,000</text><text text-anchor="middle" transform="translate(311.11111111111114,15)" font-family="sans-serif" font-size="10px" fill="#000" opacity="1">3,500</text><text text-anchor="middle" transform="translate(355.55555555555554,15)" font-family="sans-serif" font-size="10px" fill="#000" opacity="1">4,000</text><text text-anchor="end" transform="translate(400,15)" font-family="sans-serif" font-size="10px" fill="#000" opacity="1">4,500</text></g><g class="mark-rule role-axis-domain" pointer-events="none"><line transform="translate(0,0)" x2="400" y2="0" stroke="#888" stroke-width="1" opacity="1"/></g><g class="mark-text role-axis-title" pointer-events="none"><text text-anchor="middle" transform="translate(200,30)" font-family="sans-serif" font-size="11px" font-weight="bold" fill="#000" opacity="1">Observed L_ij (in thousands)</text></g></g><path class="foreground" aria-hidden="true" d="" pointer-events="none" display="none"/></g></g><g class="mark-group role-axis" role="graphics-symbol" aria-roledescription="axis" aria-label="Y-axis titled 'Predicted L_ij (in thousands)' for a linear scale with values from 0 to 4,500"><g transform="translate(0.5,0.5)"><path class="background" aria-hidden="true" d="M0,0h0v0h0Z" pointer-events="none"/><g><g class="mark-rule role-axis-tick" pointer-events="none"><line transform="translate(0,350)" x2="-5" y2="0" stroke="#888" stroke-width="1" opacity="1"/><line transform="translate(0,311)" x2="-5" y2="0" stroke="#888" stroke-width="1" opacity="1"/><line transform="translate(0,272)" x2="-5" y2="0" stroke="#888" stroke-width="1" opacity="1"/><line transform="translate(0,233)" x2="-5" y2="0" stroke="#888" stroke-width="1" opacity="1"/><line transform="translate(0,194)" x2="-5" y2="0" stroke="#888" stroke-width="1" opacity="1"/><line transform="translate(0,156)" x2="-5" y2="0" stroke="#888" stroke-width="1" opacity="1"/><line transform="translate(0,117)" x2="-5" y2="0" stroke="#888" stroke-width="1" opacity="1"/><line transform="translate(0,78)" x2="-5" y2="0" stroke="#888" stroke-width="1" opacity="1"/><line transform="translate(0,39)" x2="-5" y2="0" stroke="#888" stroke-width="1" opacity="1"/><line transform="translate(0,0)" x2="-5" y2="0" stroke="#888" stroke-width="1" opacity="1"/></g><g class="mark-text role-axis-label" pointer-events="none"><text text-anchor="end" transform="translate(-7,353)" font-family="sans-serif" font-size="10px" fill="#000" opacity="1">0</text><text text-anchor="end" transform="translate(-7,314.1111111111111)" font-family="sans-serif" font-size="10px" fill="#000" opacity="1">500</text><text text-anchor="end" transform="translate(-7,275.22222222222223)" font-family="sans-serif" font-size="10px" fill="#000" opacity="1">1,000</text><text text-anchor="end" transform="translate(-7,236.33333333333337)" font-family="sans-serif" font-size="10px" fill="#000" opacity="1">1,500</text><text text-anchor="end" transform="translate(-7,197.44444444444446)" font-family="sans-serif" font-size="10px" fill="#000" opacity="1">2,000</text><text text-anchor="end" transform="translate(-7,158.55555555555554)" font-family="sans-serif" font-size="10px" fill="#000" opacity="1">2,500</text><text text-anchor="end" transform="translate(-7,119.66666666666669)" font-family="sans-serif" font-size="10px" fill="#000" opacity="1">3,000</text><text text-anchor="end" transform="translate(-7,80.77777777777777)" font-family="sans-serif" font-size="10px" fill="#000" opacity="1">3,500</text><text text-anchor="end" transform="translate(-7,41.88888888888891)" font-family="sans-serif" font-size="10px" fill="#000" opacity="1">4,000</text><text text-anchor="end" transform="translate(-7,3)" font-family="sans-serif" font-size="10px" fill="#000" opacity="1">4,500</text></g><g class="mark-rule role-axis-domain" pointer-events="none"><line transform="translate(0,350)" x2="0" y2="-350" stroke="#888" stroke-width="1" opacity="1"/></g><g class="mark-text role-axis-title" pointer-events="none"><text text-anchor="middle" transform="translate(-36.0244140625,175) rotate(-90) translate(0,-2)" font-family="sans-serif" font-size="11px" font-weight="bold" fill="#000" opacity="1">Predicted L_ij (in thousands)</text></g></g><path class="foreground" aria-hidden="true" d="" pointer-events="none" display="none"/></g></g><g class="mark-line role-mark layer_0_marks" role="graphics-object" aria-roledescription="line mark container"><path aria-label="x: 0; y: 0" role="graphics-symbol" aria-roledescription="line mark" d="M0,350L393.735,5.482" stroke="#898989" stroke-width="0.5" stroke-dasharray="5,5"/></g><g class="mark-symbol role-mark layer_1_marks" role="graphics-object" aria-roledescription="symbol mark container"><path aria-label="Observed L_ij (in thousands): 4429.523; Predicted L_ij (in thousands): 3656.52305978; county_i_name: Los Angeles; county_j_name: Los Angeles; L_ij_data: 4429.523; L_ij_eq: 3656.52305978" role="graphics-symbol" aria-roledescription="circle" transform="translate(393.7353777777778,65.6037620171003)" d="M2.739,0A2.739,2.739,0,1,1,-2.739,0A2.739,2.739,0,1,1,2.739,0" fill="#CD5C5C" stroke-width="2" opacity="0.7"/><path aria-label="Observed L_ij (in thousands): 180.25; Predicted L_ij (in thousands): 257.442827566; county_i_name: Orange; county_j_name: Los Angeles; L_ij_data: 180.25; L_ij_eq: 257.442827566" role="graphics-symbol" aria-roledescription="circle" transform="translate(16.022222222222222,329.9766689670815)" d="M2.739,0A2.739,2.739,0,1,1,-2.739,0A2.739,2.739,0,1,1,2.739,0" fill="#CD5C5C" stroke-width="2" opacity="0.7"/><path aria-label="Observed L_ij (in thousands): 53.172; Predicted L_ij (in thousands): 12.8261746327; county_i_name: Riverside; county_j_name: Los Angeles; L_ij_data: 53.172; L_ij_eq: 12.8261746327" role="graphics-symbol" aria-roledescription="circle" transform="translate(4.7264,349.0024086396752)" d="M2.739,0A2.739,2.739,0,1,1,-2.739,0A2.739,2.739,0,1,1,2.739,0" fill="#CD5C5C" stroke-width="2" opacity="0.7"/><path aria-label="Observed L_ij (in thousands): 132.992; Predicted L_ij (in thousands): 48.8712055052; county_i_name: San Bernardino; county_j_name: Los Angeles; L_ij_data: 132.992; L_ij_eq: 48.8712055052" role="graphics-symbol" aria-roledescription="circle" transform="translate(11.82151111111111,346.1989062384854)" d="M2.739,0A2.739,2.739,0,1,1,-2.739,0A2.739,2.739,0,1,1,2.739,0" fill="#CD5C5C" stroke-width="2" opacity="0.7"/><path aria-label="Observed L_ij (in thousands): 6.075; Predicted L_ij (in thousands): 0.978765089889; county_i_name: San Diego; county_j_name: Los Angeles; L_ij_data: 6.075; L_ij_eq: 0.978765089889" role="graphics-symbol" aria-roledescription="circle" transform="translate(0.54,349.92387382634195)" d="M2.739,0A2.739,2.739,0,1,1,-2.739,0A2.739,2.739,0,1,1,2.739,0" fill="#CD5C5C" stroke-width="2" opacity="0.7"/><path aria-label="Observed L_ij (in thousands): 66.18; Predicted L_ij (in thousands): 11.1633599012; county_i_name: Ventura; county_j_name: Los Angeles; L_ij_data: 66.18; L_ij_eq: 11.1633599012" role="graphics-symbol" aria-roledescription="circle" transform="translate(5.882666666666667,349.1317386743546)" d="M2.739,0A2.739,2.739,0,1,1,-2.739,0A2.739,2.739,0,1,1,2.739,0" fill="#CD5C5C" stroke-width="2" opacity="0.7"/><path aria-label="Observed L_ij (in thousands): 196.169; Predicted L_ij (in thousands): 746.884116697; county_i_name: Los Angeles; county_j_name: Orange; L_ij_data: 196.169; L_ij_eq: 746.884116697" role="graphics-symbol" aria-roledescription="circle" transform="translate(17.437244444444445,291.9090131457961)" d="M2.739,0A2.739,2.739,0,1,1,-2.739,0A2.739,2.739,0,1,1,2.739,0" fill="#CD5C5C" stroke-width="2" opacity="0.7"/><path aria-label="Observed L_ij (in thousands): 1325.458; Predicted L_ij (in thousands): 1153.40287413; county_i_name: Orange; county_j_name: Orange; L_ij_data: 1325.458; L_ij_eq: 1153.40287413" role="graphics-symbol" aria-roledescription="circle" transform="translate(117.81848888888891,260.2908875677972)" d="M2.739,0A2.739,2.739,0,1,1,-2.739,0A2.739,2.739,0,1,1,2.739,0" fill="#CD5C5C" stroke-width="2" opacity="0.7"/><path aria-label="Observed L_ij (in thousands): 75.863; Predicted L_ij (in thousands): 90.8965775719; county_i_name: Riverside; county_j_name: Orange; L_ij_data: 75.863; L_ij_eq: 90.8965775719" role="graphics-symbol" aria-roledescription="circle" transform="translate(6.743377777777777,342.9302661888489)" d="M2.739,0A2.739,2.739,0,1,1,-2.739,0A2.739,2.739,0,1,1,2.739,0" fill="#CD5C5C" stroke-width="2" opacity="0.7"/><path aria-label="Observed L_ij (in thousands): 37.327; Predicted L_ij (in thousands): 103.139999149; county_i_name: San Bernardino; county_j_name: Orange; L_ij_data: 37.327; L_ij_eq: 103.139999149" role="graphics-symbol" aria-roledescription="circle" transform="translate(3.3179555555555553,341.97800006620224)" d="M2.739,0A2.739,2.739,0,1,1,-2.739,0A2.739,2.739,0,1,1,2.739,0" fill="#CD5C5C" stroke-width="2" opacity="0.7"/><path aria-label="Observed L_ij (in thousands): 12.12; Predicted L_ij (in thousands): 12.6954081969; county_i_name: San Diego; county_j_name: Orange; L_ij_data: 12.12; L_ij_eq: 12.6954081969" role="graphics-symbol" aria-roledescription="circle" transform="translate(1.0773333333333333,349.0125793624641)" d="M2.739,0A2.739,2.739,0,1,1,-2.739,0A2.739,2.739,0,1,1,2.739,0" fill="#CD5C5C" stroke-width="2" opacity="0.7"/><path aria-label="Observed L_ij (in thousands): 0.576; Predicted L_ij (in thousands): 0.997131520136; county_i_name: Ventura; county_j_name: Orange; L_ij_data: 0.576; L_ij_eq: 0.997131520136" role="graphics-symbol" aria-roledescription="circle" transform="translate(0.051199999999999996,349.92244532621163)" d="M2.739,0A2.739,2.739,0,1,1,-2.739,0A2.739,2.739,0,1,1,2.739,0" fill="#CD5C5C" stroke-width="2" opacity="0.7"/><path aria-label="Observed L_ij (in thousands): 16.786; Predicted L_ij (in thousands): 19.9021500707; county_i_name: Los Angeles; county_j_name: Riverside; L_ij_data: 16.786; L_ij_eq: 19.9021500707" role="graphics-symbol" aria-roledescription="circle" transform="translate(1.492088888888889,348.45205499450464)" d="M2.739,0A2.739,2.739,0,1,1,-2.739,0A2.739,2.739,0,1,1,2.739,0" fill="#CD5C5C" stroke-width="2" opacity="0.7"/><path aria-label="Observed L_ij (in thousands): 16.208; Predicted L_ij (in thousands): 48.6158577368; county_i_name: Orange; county_j_name: Riverside; L_ij_data: 16.208; L_ij_eq: 48.6158577368" role="graphics-symbol" aria-roledescription="circle" transform="translate(1.440711111111111,346.2187666204687)" d="M2.739,0A2.739,2.739,0,1,1,-2.739,0A2.739,2.739,0,1,1,2.739,0" fill="#CD5C5C" stroke-width="2" opacity="0.7"/><path aria-label="Observed L_ij (in thousands): 725.518; Predicted L_ij (in thousands): 624.669646755; county_i_name: Riverside; county_j_name: Riverside; L_ij_data: 725.518; L_ij_eq: 624.669646755" role="graphics-symbol" aria-roledescription="circle" transform="translate(64.49048888888889,301.4145830301719)" d="M2.739,0A2.739,2.739,0,1,1,-2.739,0A2.739,2.739,0,1,1,2.739,0" fill="#CD5C5C" stroke-width="2" opacity="0.7"/><path aria-label="Observed L_ij (in thousands): 78.508; Predicted L_ij (in thousands): 200.346947225; county_i_name: San Bernardino; county_j_name: Riverside; L_ij_data: 78.508; L_ij_eq: 200.346947225" role="graphics-symbol" aria-roledescription="circle" transform="translate(6.978488888888888,334.41745966027696)" d="M2.739,0A2.739,2.739,0,1,1,-2.739,0A2.739,2.739,0,1,1,2.739,0" fill="#CD5C5C" stroke-width="2" opacity="0.7"/><path aria-label="Observed L_ij (in thousands): 6.989; Predicted L_ij (in thousands): 19.2449271251; county_i_name: San Diego; county_j_name: Riverside; L_ij_data: 6.989; L_ij_eq: 19.2449271251" role="graphics-symbol" aria-roledescription="circle" transform="translate(0.6212444444444444,348.503172334713)" d="M2.739,0A2.739,2.739,0,1,1,-2.739,0A2.739,2.739,0,1,1,2.739,0" fill="#CD5C5C" stroke-width="2" opacity="0.7"/><path aria-label="Observed L_ij (in thousands): 0.177; Predicted L_ij (in thousands): 0.0214060789453; county_i_name: Ventura; county_j_name: Riverside; L_ij_data: 0.177; L_ij_eq: 0.0214060789453" role="graphics-symbol" aria-roledescription="circle" transform="translate(0.015733333333333332,349.99833508274867)" d="M2.739,0A2.739,2.739,0,1,1,-2.739,0A2.739,2.739,0,1,1,2.739,0" fill="#CD5C5C" stroke-width="2" opacity="0.7"/><path aria-label="Observed L_ij (in thousands): 60.779; Predicted L_ij (in thousands): 98.1041862116; county_i_name: Los Angeles; county_j_name: San Bernardino; L_ij_data: 60.779; L_ij_eq: 98.1041862116" role="graphics-symbol" aria-roledescription="circle" transform="translate(5.402577777777778,342.36967440576205)" d="M2.739,0A2.739,2.739,0,1,1,-2.739,0A2.739,2.739,0,1,1,2.739,0" fill="#CD5C5C" stroke-width="2" opacity="0.7"/><path aria-label="Observed L_ij (in thousands): 12.934; Predicted L_ij (in thousands): 71.3656431701; county_i_name: Orange; county_j_name: San Bernardino; L_ij_data: 12.934; L_ij_eq: 71.3656431701" role="graphics-symbol" aria-roledescription="circle" transform="translate(1.1496888888888888,344.44933886454487)" d="M2.739,0A2.739,2.739,0,1,1,-2.739,0A2.739,2.739,0,1,1,2.739,0" fill="#CD5C5C" stroke-width="2" opacity="0.7"/><path aria-label="Observed L_ij (in thousands): 113.716; Predicted L_ij (in thousands): 259.187688755; county_i_name: Riverside; county_j_name: San Bernardino; L_ij_data: 113.716; L_ij_eq: 259.187688755" role="graphics-symbol" aria-roledescription="circle" transform="translate(10.108088888888888,329.8409575412435)" d="M2.739,0A2.739,2.739,0,1,1,-2.739,0A2.739,2.739,0,1,1,2.739,0" fill="#CD5C5C" stroke-width="2" opacity="0.7"/><path aria-label="Observed L_ij (in thousands): 657.249; Predicted L_ij (in thousands): 553.367855336; county_i_name: San Bernardino; county_j_name: San Bernardino; L_ij_data: 657.249; L_ij_eq: 553.367855336" role="graphics-symbol" aria-roledescription="circle" transform="translate(58.422133333333335,306.960277918348)" d="M2.739,0A2.739,2.739,0,1,1,-2.739,0A2.739,2.739,0,1,1,2.739,0" fill="#CD5C5C" stroke-width="2" opacity="0.7"/><path aria-label="Observed L_ij (in thousands): 1.209; Predicted L_ij (in thousands): 2.12640433359; county_i_name: San Diego; county_j_name: San Bernardino; L_ij_data: 1.209; L_ij_eq: 2.12640433359" role="graphics-symbol" aria-roledescription="circle" transform="translate(0.10746666666666667,349.8346129962765)" d="M2.739,0A2.739,2.739,0,1,1,-2.739,0A2.739,2.739,0,1,1,2.739,0" fill="#CD5C5C" stroke-width="2" opacity="0.7"/><path aria-label="Observed L_ij (in thousands): 0.586; Predicted L_ij (in thousands): 0.127057850318; county_i_name: Ventura; county_j_name: San Bernardino; L_ij_data: 0.586; L_ij_eq: 0.127057850318" role="graphics-symbol" aria-roledescription="circle" transform="translate(0.052088888888888886,349.99011772275304)" d="M2.739,0A2.739,2.739,0,1,1,-2.739,0A2.739,2.739,0,1,1,2.739,0" fill="#CD5C5C" stroke-width="2" opacity="0.7"/><path aria-label="Observed L_ij (in thousands): 4.724; Predicted L_ij (in thousands): 2.23456435623; county_i_name: Los Angeles; county_j_name: San Diego; L_ij_data: 4.724; L_ij_eq: 2.23456435623" role="graphics-symbol" aria-roledescription="circle" transform="translate(0.41991111111111107,349.826200550071)" d="M2.739,0A2.739,2.739,0,1,1,-2.739,0A2.739,2.739,0,1,1,2.739,0" fill="#CD5C5C" stroke-width="2" opacity="0.7"/><path aria-label="Observed L_ij (in thousands): 12.094; Predicted L_ij (in thousands): 9.99053253759; county_i_name: Orange; county_j_name: San Diego; L_ij_data: 12.094; L_ij_eq: 9.99053253759" role="graphics-symbol" aria-roledescription="circle" transform="translate(1.075022222222222,349.22295858040997)" d="M2.739,0A2.739,2.739,0,1,1,-2.739,0A2.739,2.739,0,1,1,2.739,0" fill="#CD5C5C" stroke-width="2" opacity="0.7"/><path aria-label="Observed L_ij (in thousands): 47.073; Predicted L_ij (in thousands): 28.3157336915; county_i_name: Riverside; county_j_name: San Diego; L_ij_data: 47.073; L_ij_eq: 28.3157336915" role="graphics-symbol" aria-roledescription="circle" transform="translate(4.184266666666667,347.79766515732797)" d="M2.739,0A2.739,2.739,0,1,1,-2.739,0A2.739,2.739,0,1,1,2.739,0" fill="#CD5C5C" stroke-width="2" opacity="0.7"/><path aria-label="Observed L_ij (in thousands): 2.796; Predicted L_ij (in thousands): 2.41838676396; county_i_name: San Bernardino; county_j_name: San Diego; L_ij_data: 2.796; L_ij_eq: 2.41838676396" role="graphics-symbol" aria-roledescription="circle" transform="translate(0.24853333333333333,349.8119032516918)" d="M2.739,0A2.739,2.739,0,1,1,-2.739,0A2.739,2.739,0,1,1,2.739,0" fill="#CD5C5C" stroke-width="2" opacity="0.7"/><path aria-label="Observed L_ij (in thousands): 1588.755; Predicted L_ij (in thousands): 1580.36345482; county_i_name: San Diego; county_j_name: San Diego; L_ij_data: 1588.755; L_ij_eq: 1580.36345482" role="graphics-symbol" aria-roledescription="circle" transform="translate(141.22266666666667,227.08284240281307)" d="M2.739,0A2.739,2.739,0,1,1,-2.739,0A2.739,2.739,0,1,1,2.739,0" fill="#CD5C5C" stroke-width="2" opacity="0.7"/><path aria-label="Observed L_ij (in thousands): 0.333; Predicted L_ij (in thousands): 0.00396819327961; county_i_name: Ventura; county_j_name: San Diego; L_ij_data: 0.333; L_ij_eq: 0.00396819327961" role="graphics-symbol" aria-roledescription="circle" transform="translate(0.029600000000000005,349.99969136274495)" d="M2.739,0A2.739,2.739,0,1,1,-2.739,0A2.739,2.739,0,1,1,2.739,0" fill="#CD5C5C" stroke-width="2" opacity="0.7"/><path aria-label="Observed L_ij (in thousands): 34.298; Predicted L_ij (in thousands): 218.630922884; county_i_name: Los Angeles; county_j_name: Ventura; L_ij_data: 34.298; L_ij_eq: 218.630922884" role="graphics-symbol" aria-roledescription="circle" transform="translate(3.0487111111111114,332.9953726645437)" d="M2.739,0A2.739,2.739,0,1,1,-2.739,0A2.739,2.739,0,1,1,2.739,0" fill="#CD5C5C" stroke-width="2" opacity="0.7"/><path aria-label="Observed L_ij (in thousands): 0.605; Predicted L_ij (in thousands): 6.73126486103; county_i_name: Orange; county_j_name: Ventura; L_ij_data: 0.605; L_ij_eq: 6.73126486103" role="graphics-symbol" aria-roledescription="circle" transform="translate(0.05377777777777778,349.4764571774756)" d="M2.739,0A2.739,2.739,0,1,1,-2.739,0A2.739,2.739,0,1,1,2.739,0" fill="#CD5C5C" stroke-width="2" opacity="0.7"/><path aria-label="Observed L_ij (in thousands): 0.824; Predicted L_ij (in thousands): 0.270178593439; county_i_name: Riverside; county_j_name: Ventura; L_ij_data: 0.824; L_ij_eq: 0.270178593439" role="graphics-symbol" aria-roledescription="circle" transform="translate(0.07324444444444445,349.9789861093992)" d="M2.739,0A2.739,2.739,0,1,1,-2.739,0A2.739,2.739,0,1,1,2.739,0" fill="#CD5C5C" stroke-width="2" opacity="0.7"/><path aria-label="Observed L_ij (in thousands): 0.512; Predicted L_ij (in thousands): 1.23960602149; county_i_name: San Bernardino; county_j_name: Ventura; L_ij_data: 0.512; L_ij_eq: 1.23960602149" role="graphics-symbol" aria-roledescription="circle" transform="translate(0.04551111111111111,349.90358619832887)" d="M2.739,0A2.739,2.739,0,1,1,-2.739,0A2.739,2.739,0,1,1,2.739,0" fill="#CD5C5C" stroke-width="2" opacity="0.7"/><path aria-label="Observed L_ij (in thousands): 0.295; Predicted L_ij (in thousands): 0.0340404335401; county_i_name: San Diego; county_j_name: Ventura; L_ij_data: 0.295; L_ij_eq: 0.0340404335401" role="graphics-symbol" aria-roledescription="circle" transform="translate(0.026222222222222223,349.99735241072466)" d="M2.739,0A2.739,2.739,0,1,1,-2.739,0A2.739,2.739,0,1,1,2.739,0" fill="#CD5C5C" stroke-width="2" opacity="0.7"/><path aria-label="Observed L_ij (in thousands): 321.696; Predicted L_ij (in thousands): 377.235076456; county_i_name: Ventura; county_j_name: Ventura; L_ij_data: 321.696; L_ij_eq: 377.235076456" role="graphics-symbol" aria-roledescription="circle" transform="translate(28.595200000000006,320.65949405340933)" d="M2.739,0A2.739,2.739,0,1,1,-2.739,0A2.739,2.739,0,1,1,2.739,0" fill="#CD5C5C" stroke-width="2" opacity="0.7"/></g><g class="mark-group role-title"><g transform="translate(200,-22)"><path class="background" aria-hidden="true" d="M0,0h0v0h0Z" pointer-events="none"/><g><g class="mark-text role-title-text" role="graphics-symbol" aria-roledescription="title" aria-label="Title text 'Observed vs Predicted Commuting Flows'" pointer-events="none"><text text-anchor="middle" transform="translate(0,10)" font-family="sans-serif" font-size="13px" font-weight="bold" fill="#000" opacity="1">Observed vs Predicted Commuting Flows</text></g></g><path class="foreground" aria-hidden="true" d="" pointer-events="none" display="none"/></g></g></g><path class="foreground" aria-hidden="true" d="" display="none"/></g></g></g></svg>