<svg xmlns="http://www.w3.org/2000/svg" xmlns:xlink="http://www.w3.org/1999/xlink" version="1.1" class="marks" width="484" height="410" viewBox="0 0 484 410"><rect width="484" height="410" fill="white"/><g fill="none" stroke-miterlimit="10" transform="translate(72,23)"><g class="mark-group role-frame root" role="graphics-object" aria-roledescription="group mark container"><g transform="translate(0,0)"><path class="background" aria-hidden="true" d="M0.5,0.5h400v350h-400Z" stroke="#ddd"/><g><g class="mark-group role-axis" aria-hidden="true"><g transform="translate(0.5,350.5)"><path class="background" aria-hidden="true" d="M0,0h0v0h0Z" pointer-events="none"/><g><g class="mark-rule role-axis-grid" pointer-events="none"><line transform="translate(0,-350)" x2="0" y2="350" stroke="#ddd" stroke-width="1" opacity="1"/><line transform="translate(343,-350)" x2="0" y2="350" stroke="#ddd" stroke-width="1" opacity="1"/><line transform="translate(361,-350)" x2="0" y2="350" stroke="#ddd" stroke-width="1" opacity="1"/><line transform="translate(371,-350)" x2="0" y2="350" stroke="#ddd" stroke-width="1" opacity="1"/><line transform="translate(379,-350)" x2="0" y2="350" stroke="#ddd" stroke-width="1" opacity="1"/><line transform="translate(385,-350)" x2="0" y2="350" stroke="#ddd" stroke-width="1" opacity="1"/><line transform="translate(389,-350)" x2="0" y2="350" stroke="#ddd" stroke-width="1" opacity="1"/><line transform="translate(393,-350)" x2="0" y2="350" stroke="#ddd" stroke-width="1" opacity="1"/><line transform="translate(397,-350)" x2="0" y2="350" stroke="#ddd" stroke-width="1" opacity="1"/><line transform="translate(400,-350)" x2="0" y2="350" stroke="#ddd" stroke-width="1" opacity="1"/></g></g><path class="foreground" aria-hidden="true" d="" pointer-events="none" display="none"/></g></g><g class="mark-group role-axis" aria-hidden="true"><g transform="translate(0.5,0.5)"><path class="background" aria-hidden="true" d="M0,0h0v0h0Z" pointer-events="none"/><g><g class="mark-rule role-axis-grid" pointer-events="none"><line transform="translate(0,350)" x2="400" y2="0" stroke="#ddd" stroke-width="1" opacity="1"/><line transform="translate(0,50)" x2="400" y2="0" stroke="#ddd" stroke-width="1" opacity="1"/><line transform="translate(0,34)" x2="400" y2="0" stroke="#ddd" stroke-width="1" opacity="1"/><line transform="translate(0,25)" x2="400" y2="0" stroke="#ddd" stroke-width="1" opacity="1"/><line transform="translate(0,19)" x2="400" y2="0" stroke="#ddd" stroke-width="1" opacity="1"/><line transform="translate(0,13)" x2="400" y2="0" stroke="#ddd" stroke-width="1" opacity="1"/><line transform="translate(0,9)" x2="400" y2="0" stroke="#ddd" stroke-width="1" opacity="1"/><line transform="translate(0,6)" x2="400" y2="0" stroke="#ddd" stroke-width="1" opacity="1"/><line transform="translate(0,3)" x2="400" y2="0" stroke="#ddd" stroke-width="1" opacity="1"/><line transform="translate(0,0)" x2="400" y2="0" stroke="#ddd" stroke-width="1" opacity="1"/></g></g><path class="foreground" aria-hidden="true" d="" pointer-events="none" display="none"/></g></g><g class="mark-group role-axis" role="graphics-symbol" aria-roledescription="axis" aria-label="X-axis titled 'Observed L_ij' for a symlog scale with values from 0 to 4,500,000"><g transform="translate(0.5,350.5)"><path class="background" aria-hidden="true" d="M0,0h0v0h0Z" pointer-events="none"/><g><g class="mark-rule role-axis-tick" pointer-events="none"><line transform="translate(0,0)" x2="0" y2="5" stroke="#888" stroke-width="1" opacity="1"/><line transform="translate(343,0)" x2="0" y2="5" stroke="#888" stroke-width="1" opacity="1"/><line transform="translate(361,0)" x2="0" y2="5" stroke="#888" stroke-width="1" opacity="1"/><line transform="translate(371,0)" x2="0" y2="5" stroke="#888" stroke-width="1" opacity="1"/><line transform="translate(379,0)" x2="0" y2="5" stroke="#888" stroke-width="1" opacity="1"/><line transform="translate(385,0)" x2="0" y2="5" stroke="#888" stroke-width="1" opacity="1"/><line transform="translate(389,0)" x2="0" y2="5" stroke="#888" stroke-width="1" opacity="1"/><line transform="translate(393,0)" x2="0" y2="5" stroke="#888" stroke-width="1" opacity="1"/><line transform="translate(397,0)" x2="0" y2="5" stroke="#888" stroke-width="1" opacity="1"/><line transform="translate(400,0)" x2="0" y2="5" stroke="#888" stroke-width="1" opacity="1"/></g><g class="mark-text role-axis-label" pointer-events="none"><text text-anchor="start" transform="translate(0,15)" font-family="sans-serif" font-size="10px" fill="#000" opacity="1">0</text><text text-anchor="middle" transform="translate(342.6297163036131,15)" font-family="sans-serif" font-size="10px" fill="#000" opacity="1">500,000</text><text text-anchor="middle" transform="translate(360.7280143140984,15)" font-family="sans-serif" font-size="10px" fill="#000" opacity="0">1,000,000</text><text text-anchor="middle" transform="translate(371.31484654722163,15)" font-family="sans-serif" font-size="10px" fill="#000" opacity="0">1,500,000</text><text text-anchor="middle" transform="translate(378.82632537973547,15)" font-family="sans-serif" font-size="10px" fill="#000" opacity="0">2,000,000</text><text text-anchor="middle" transform="translate(384.65268177356626,15)" font-family="sans-serif" font-size="10px" fill="#000" opacity="1">2,500,000</text><text text-anchor="middle" transform="translate(389.41316196458035,15)" font-family="sans-serif" font-size="10px" fill="#000" opacity="0">3,000,000</text><text text-anchor="middle" transform="translate(393.4380908445886,15)" font-family="sans-serif" font-size="10px" fill="#000" opacity="0">3,500,000</text><text text-anchor="middle" transform="translate(396.92464297295584,15)" font-family="sans-serif" font-size="10px" fill="#000" opacity="0">4,000,000</text><text text-anchor="end" transform="translate(400,15)" font-family="sans-serif" font-size="10px" fill="#000" opacity="0">4,500,000</text></g><g class="mark-rule role-axis-domain" pointer-events="none"><line transform="translate(0,0)" x2="400" y2="0" stroke="#888" stroke-width="1" opacity="1"/></g><g class="mark-text role-axis-title" pointer-events="none"><text text-anchor="middle" transform="translate(200,30)" font-family="sans-serif" font-size="11px" font-weight="bold" fill="#000" opacity="1">Observed L_ij</text></g></g><path class="foreground" aria-hidden="true" d="" pointer-events="none" display="none"/></g></g><g class="mark-group role-axis" role="graphics-symbol" aria-roledescription="axis" aria-label="Y-axis titled 'Predicted L_ij' for a symlog scale with values from 0 to 4,500,000"><g transform="translate(0.5,0.5)"><path class="background" aria-hidden="true" d="M0,0h0v0h0Z" pointer-events="none"/><g><g class="mark-rule role-axis-tick" pointer-events="none"><line transform="translate(0,350)" x2="-5" y2="0" stroke="#888" stroke-width="1" opacity="1"/><line transform="translate(0,50)" x2="-5" y2="0" stroke="#888" stroke-width="1" opacity="1"/><line transform="translate(0,34)" x2="-5" y2="0" stroke="#888" stroke-width="1" opacity="1"/><line transform="translate(0,25)" x2="-5" y2="0" stroke="#888" stroke-width="1" opacity="1"/><line transform="translate(0,19)" x2="-5" y2="0" stroke="#888" stroke-width="1" opacity="1"/><line transform="translate(0,13)" x2="-5" y2="0" stroke="#888" stroke-width="1" opacity="1"/><line transform="translate(0,9)" x2="-5" y2="0" stroke="#888" stroke-width="1" opacity="1"/><line transform="translate(0,6)" x2="-5" y2="0" stroke="#888" stroke-width="1" opacity="1"/><line transform="translate(0,3)" x2="-5" y2="0" stroke="#888" stroke-width="1" opacity="1"/><line transform="translate(0,0)" x2="-5" y2="0" stroke="#888" stroke-width="1" opacity="1"/></g><g class="mark-text role-axis-label" pointer-events="none"><text text-anchor="end" transform="translate(-7,353)" font-family="sans-serif" font-size="10px" fill="#000" opacity="1">0</text><text text-anchor="end" transform="translate(-7,53.19899823433852)" font-family="sans-serif" font-size="10px" fill="#000" opacity="1">500,000</text><text text-anchor="end" transform="translate(-7,37.36298747516392)" font-family="sans-serif" font-size="10px" fill="#000" opacity="1">1,000,000</text><text text-anchor="end" transform="translate(-7,28.09950927118108)" font-family="sans-serif" font-size="10px" fill="#000" opacity="0">1,500,000</text><text text-anchor="end" transform="translate(-7,21.52696529273145)" font-family="sans-serif" font-size="10px" fill="#000" opacity="1">2,000,000</text><text text-anchor="end" transform="translate(-7,16.428903448129518)" font-family="sans-serif" font-size="10px" fill="#000" opacity="0">2,500,000</text><text text-anchor="end" transform="translate(-7,12.263483280992169)" font-family="sans-serif" font-size="10px" fill="#000" opacity="0">3,000,000</text><text text-anchor="end" transform="translate(-7,8.74167051098497)" font-family="sans-serif" font-size="10px" fill="#000" opacity="1">3,500,000</text><text text-anchor="end" transform="translate(-7,5.690937398663657)" font-family="sans-serif" font-size="10px" fill="#000" opacity="0">4,000,000</text><text text-anchor="end" transform="translate(-7,3)" font-family="sans-serif" font-size="10px" fill="#000" opacity="0">4,500,000</text></g><g class="mark-rule role-axis-domain" pointer-events="none"><line transform="translate(0,350)" x2="0" y2="-350" stroke="#888" stroke-width="1" opacity="1"/></g><g class="mark-text role-axis-title" pointer-events="none"><text text-anchor="middle" transform="translate(-55.4873046875,175) rotate(-90) translate(0,-2)" font-family="sans-serif" font-size="11px" font-weight="bold" fill="#000" opacity="1">Predicted L_ij</text></g></g><path class="foreground" aria-hidden="true" d="" pointer-events="none" display="none"/></g></g><g class="mark-line role-mark layer_0_marks" role="graphics-object" aria-roledescription="line mark container"><path aria-label="x: 0; y: 0" role="graphics-symbol" aria-roledescription="line mark" d="M0,350L399.588,0.361" stroke="#898989" stroke-width="0.5" stroke-dasharray="5,5"/></g><g class="mark-symbol role-mark layer_1_marks" role="graphics-object" aria-roledescription="symbol mark container"><path aria-label="Observed L_ij: 4429523; Predicted L_ij: 3656523.05978; county_i_name: Los Angeles; county_j_name: Los Angeles; L_ij_data: 4429523; predicted_L_ij_eq: 3656523.05978" role="graphics-symbol" aria-roledescription="circle" transform="translate(399.58783513650377,4.742139332453688)" d="M2.739,0A2.739,2.739,0,1,1,-2.739,0A2.739,2.739,0,1,1,2.739,0" fill="#CD5C5C" stroke-width="2" opacity="0.7"/><path aria-label="Observed L_ij: 180250; Predicted L_ij: 257442.827566; county_i_name: Orange; county_j_name: Los Angeles; L_ij_data: 180250; predicted_L_ij_eq: 257442.827566" role="graphics-symbol" aria-roledescription="circle" transform="translate(315.9903637927001,65.36474478946853)" d="M2.739,0A2.739,2.739,0,1,1,-2.739,0A2.739,2.739,0,1,1,2.739,0" fill="#CD5C5C" stroke-width="2" opacity="0.7"/><path aria-label="Observed L_ij: 53172; Predicted L_ij: 12826.1746327; county_i_name: Riverside; county_j_name: Los Angeles; L_ij_data: 53172; predicted_L_ij_eq: 12826.1746327" role="graphics-symbol" aria-roledescription="circle" transform="translate(284.1148443941738,133.88698260413767)" d="M2.739,0A2.739,2.739,0,1,1,-2.739,0A2.739,2.739,0,1,1,2.739,0" fill="#CD5C5C" stroke-width="2" opacity="0.7"/><path aria-label="Observed L_ij: 132992; Predicted L_ij: 48871.2055052; county_i_name: San Bernardino; county_j_name: Los Angeles; L_ij_data: 132992; predicted_L_ij_eq: 48871.2055052" role="graphics-symbol" aria-roledescription="circle" transform="translate(308.05140811765426,103.32643422923813)" d="M2.739,0A2.739,2.739,0,1,1,-2.739,0A2.739,2.739,0,1,1,2.739,0" fill="#CD5C5C" stroke-width="2" opacity="0.7"/><path aria-label="Observed L_ij: 6075; Predicted L_ij: 978.765089889; county_i_name: San Diego; county_j_name: Los Angeles; L_ij_data: 6075; predicted_L_ij_eq: 978.765089889" role="graphics-symbol" aria-roledescription="circle" transform="translate(227.47613742820388,192.64854474465392)" d="M2.739,0A2.739,2.739,0,1,1,-2.739,0A2.739,2.739,0,1,1,2.739,0" fill="#CD5C5C" stroke-width="2" opacity="0.7"/><path aria-label="Observed L_ij: 66180; Predicted L_ij: 11163.3599012; county_i_name: Ventura; county_j_name: Los Angeles; L_ij_data: 66180; predicted_L_ij_eq: 11163.3599012" role="graphics-symbol" aria-roledescription="circle" transform="translate(289.82890567146774,137.0589859568267)" d="M2.739,0A2.739,2.739,0,1,1,-2.739,0A2.739,2.739,0,1,1,2.739,0" fill="#CD5C5C" stroke-width="2" opacity="0.7"/><path aria-label="Observed L_ij: 196169; Predicted L_ij: 746884.116697; county_i_name: Los Angeles; county_j_name: Orange; L_ij_data: 196169; predicted_L_ij_eq: 746884.116697" role="graphics-symbol" aria-roledescription="circle" transform="translate(318.20011787391445,41.03064154816597)" d="M2.739,0A2.739,2.739,0,1,1,-2.739,0A2.739,2.739,0,1,1,2.739,0" fill="#CD5C5C" stroke-width="2" opacity="0.7"/><path aria-label="Observed L_ij: 1325458; Predicted L_ij: 1153402.87413; county_i_name: Orange; county_j_name: Orange; L_ij_data: 1325458; predicted_L_ij_eq: 1153402.87413" role="graphics-symbol" aria-roledescription="circle" transform="translate(368.08481297710347,31.10240626385874)" d="M2.739,0A2.739,2.739,0,1,1,-2.739,0A2.739,2.739,0,1,1,2.739,0" fill="#CD5C5C" stroke-width="2" opacity="0.7"/><path aria-label="Observed L_ij: 75863; Predicted L_ij: 90896.5775719; county_i_name: Riverside; county_j_name: Orange; L_ij_data: 75863; predicted_L_ij_eq: 90896.5775719" role="graphics-symbol" aria-roledescription="circle" transform="translate(293.39424566153957,89.14957931687796)" d="M2.739,0A2.739,2.739,0,1,1,-2.739,0A2.739,2.739,0,1,1,2.739,0" fill="#CD5C5C" stroke-width="2" opacity="0.7"/><path aria-label="Observed L_ij: 37327; Predicted L_ij: 103139.999149; county_i_name: San Bernardino; county_j_name: Orange; L_ij_data: 37327; predicted_L_ij_eq: 103139.999149" role="graphics-symbol" aria-roledescription="circle" transform="translate(274.87681451103833,86.26260428602832)" d="M2.739,0A2.739,2.739,0,1,1,-2.739,0A2.739,2.739,0,1,1,2.739,0" fill="#CD5C5C" stroke-width="2" opacity="0.7"/><path aria-label="Observed L_ij: 12120; Predicted L_ij: 12695.4081969; county_i_name: San Diego; county_j_name: Orange; L_ij_data: 12120; predicted_L_ij_eq: 12695.4081969" role="graphics-symbol" aria-roledescription="circle" transform="translate(245.5077683774835,134.12108690823663)" d="M2.739,0A2.739,2.739,0,1,1,-2.739,0A2.739,2.739,0,1,1,2.739,0" fill="#CD5C5C" stroke-width="2" opacity="0.7"/><path aria-label="Observed L_ij: 576; Predicted L_ij: 997.131520136; county_i_name: Ventura; county_j_name: Orange; L_ij_data: 576; predicted_L_ij_eq: 997.131520136" role="graphics-symbol" aria-roledescription="circle" transform="translate(166.00556602608629,192.22423344244334)" d="M2.739,0A2.739,2.739,0,1,1,-2.739,0A2.739,2.739,0,1,1,2.739,0" fill="#CD5C5C" stroke-width="2" opacity="0.7"/><path aria-label="Observed L_ij: 16786; Predicted L_ij: 19902.1500707; county_i_name: Los Angeles; county_j_name: Riverside; L_ij_data: 16786; predicted_L_ij_eq: 19902.1500707" role="graphics-symbol" aria-roledescription="circle" transform="translate(254.01100718756146,123.85020977081982)" d="M2.739,0A2.739,2.739,0,1,1,-2.739,0A2.739,2.739,0,1,1,2.739,0" fill="#CD5C5C" stroke-width="2" opacity="0.7"/><path aria-label="Observed L_ij: 16208; Predicted L_ij: 48615.8577368; county_i_name: Orange; county_j_name: Riverside; L_ij_data: 16208; predicted_L_ij_eq: 48615.8577368" role="graphics-symbol" aria-roledescription="circle" transform="translate(253.09614881394205,103.44611602909062)" d="M2.739,0A2.739,2.739,0,1,1,-2.739,0A2.739,2.739,0,1,1,2.739,0" fill="#CD5C5C" stroke-width="2" opacity="0.7"/><path aria-label="Observed L_ij: 725518; Predicted L_ij: 624669.646755; county_i_name: Riverside; county_j_name: Riverside; L_ij_data: 725518; predicted_L_ij_eq: 624669.646755" role="graphics-symbol" aria-roledescription="circle" transform="translate(352.35000794842995,45.113022317089715)" d="M2.739,0A2.739,2.739,0,1,1,-2.739,0A2.739,2.739,0,1,1,2.739,0" fill="#CD5C5C" stroke-width="2" opacity="0.7"/><path aria-label="Observed L_ij: 78508; Predicted L_ij: 200346.947225; county_i_name: San Bernardino; county_j_name: Riverside; L_ij_data: 78508; predicted_L_ij_eq: 200346.947225" role="graphics-symbol" aria-roledescription="circle" transform="translate(294.2890740060307,71.09342919878353)" d="M2.739,0A2.739,2.739,0,1,1,-2.739,0A2.739,2.739,0,1,1,2.739,0" fill="#CD5C5C" stroke-width="2" opacity="0.7"/><path aria-label="Observed L_ij: 6989; Predicted L_ij: 19244.9271251; county_i_name: San Diego; county_j_name: Riverside; L_ij_data: 6989; predicted_L_ij_eq: 19244.9271251" role="graphics-symbol" aria-roledescription="circle" transform="translate(231.135086216995,124.61736445453602)" d="M2.739,0A2.739,2.739,0,1,1,-2.739,0A2.739,2.739,0,1,1,2.739,0" fill="#CD5C5C" stroke-width="2" opacity="0.7"/><path aria-label="Observed L_ij: 177; Predicted L_ij: 21.4060789453; county_i_name: Ventura; county_j_name: Riverside; L_ij_data: 177; predicted_L_ij_eq: 21.4060789453" role="graphics-symbol" aria-roledescription="circle" transform="translate(135.2982466743939,278.9624307347556)" d="M2.739,0A2.739,2.739,0,1,1,-2.739,0A2.739,2.739,0,1,1,2.739,0" fill="#CD5C5C" stroke-width="2" opacity="0.7"/><path aria-label="Observed L_ij: 60779; Predicted L_ij: 98104.1862116; county_i_name: Los Angeles; county_j_name: San Bernardino; L_ij_data: 60779; predicted_L_ij_eq: 98104.1862116" role="graphics-symbol" aria-roledescription="circle" transform="translate(287.6060619706453,87.40622905206182)" d="M2.739,0A2.739,2.739,0,1,1,-2.739,0A2.739,2.739,0,1,1,2.739,0" fill="#CD5C5C" stroke-width="2" opacity="0.7"/><path aria-label="Observed L_ij: 12934; Predicted L_ij: 71365.6431701; county_i_name: Orange; county_j_name: San Bernardino; L_ij_data: 12934; predicted_L_ij_eq: 71365.6431701" role="graphics-symbol" aria-roledescription="circle" transform="translate(247.20487222645932,94.67622728152305)" d="M2.739,0A2.739,2.739,0,1,1,-2.739,0A2.739,2.739,0,1,1,2.739,0" fill="#CD5C5C" stroke-width="2" opacity="0.7"/><path aria-label="Observed L_ij: 113716; Predicted L_ij: 259187.688755; county_i_name: Riverside; county_j_name: San Bernardino; L_ij_data: 113716; predicted_L_ij_eq: 259187.688755" role="graphics-symbol" aria-roledescription="circle" transform="translate(303.96295384334815,65.21042140236469)" d="M2.739,0A2.739,2.739,0,1,1,-2.739,0A2.739,2.739,0,1,1,2.739,0" fill="#CD5C5C" stroke-width="2" opacity="0.7"/><path aria-label="Observed L_ij: 657249; Predicted L_ij: 553367.855336; county_i_name: San Bernardino; county_j_name: San Bernardino; L_ij_data: 657249; predicted_L_ij_eq: 553367.855336" role="graphics-symbol" aria-roledescription="circle" transform="translate(349.7697088943021,47.882020741410315)" d="M2.739,0A2.739,2.739,0,1,1,-2.739,0A2.739,2.739,0,1,1,2.739,0" fill="#CD5C5C" stroke-width="2" opacity="0.7"/><path aria-label="Observed L_ij: 1209; Predicted L_ij: 2126.40433359; county_i_name: San Diego; county_j_name: San Bernardino; L_ij_data: 1209; predicted_L_ij_eq: 2126.40433359" role="graphics-symbol" aria-roledescription="circle" transform="translate(185.3411607830337,174.93457190118608)" d="M2.739,0A2.739,2.739,0,1,1,-2.739,0A2.739,2.739,0,1,1,2.739,0" fill="#CD5C5C" stroke-width="2" opacity="0.7"/><path aria-label="Observed L_ij: 586; Predicted L_ij: 127.057850318; county_i_name: Ventura; county_j_name: San Bernardino; L_ij_data: 586; predicted_L_ij_eq: 127.057850318" role="graphics-symbol" aria-roledescription="circle" transform="translate(166.45420872121656,239.1374414585621)" d="M2.739,0A2.739,2.739,0,1,1,-2.739,0A2.739,2.739,0,1,1,2.739,0" fill="#CD5C5C" stroke-width="2" opacity="0.7"/><path aria-label="Observed L_ij: 4724; Predicted L_ij: 2234.56435623; county_i_name: Los Angeles; county_j_name: San Diego; L_ij_data: 4724; predicted_L_ij_eq: 2234.56435623" role="graphics-symbol" aria-roledescription="circle" transform="translate(220.90992896664775,173.80158571737908)" d="M2.739,0A2.739,2.739,0,1,1,-2.739,0A2.739,2.739,0,1,1,2.739,0" fill="#CD5C5C" stroke-width="2" opacity="0.7"/><path aria-label="Observed L_ij: 12094; Predicted L_ij: 9990.53253759; county_i_name: Orange; county_j_name: San Diego; L_ij_data: 12094; predicted_L_ij_eq: 9990.53253759" role="graphics-symbol" aria-roledescription="circle" transform="translate(245.4517005145206,139.5946936542264)" d="M2.739,0A2.739,2.739,0,1,1,-2.739,0A2.739,2.739,0,1,1,2.739,0" fill="#CD5C5C" stroke-width="2" opacity="0.7"/><path aria-label="Observed L_ij: 47073; Predicted L_ij: 28315.7336915; county_i_name: Riverside; county_j_name: San Diego; L_ij_data: 47073; predicted_L_ij_eq: 28315.7336915" role="graphics-symbol" aria-roledescription="circle" transform="translate(280.93382110053744,115.79508336348383)" d="M2.739,0A2.739,2.739,0,1,1,-2.739,0A2.739,2.739,0,1,1,2.739,0" fill="#CD5C5C" stroke-width="2" opacity="0.7"/><path aria-label="Observed L_ij: 2796; Predicted L_ij: 2418.38676396; county_i_name: San Bernardino; county_j_name: San Diego; L_ij_data: 2796; predicted_L_ij_eq: 2418.38676396" role="graphics-symbol" aria-roledescription="circle" transform="translate(207.21973989186978,171.99624083878484)" d="M2.739,0A2.739,2.739,0,1,1,-2.739,0A2.739,2.739,0,1,1,2.739,0" fill="#CD5C5C" stroke-width="2" opacity="0.7"/><path aria-label="Observed L_ij: 1588755; Predicted L_ij: 1580363.45482; county_i_name: San Diego; county_j_name: San Diego; L_ij_data: 1588755; predicted_L_ij_eq: 1580363.45482" role="graphics-symbol" aria-roledescription="circle" transform="translate(372.8158149709062,23.907153482338956)" d="M2.739,0A2.739,2.739,0,1,1,-2.739,0A2.739,2.739,0,1,1,2.739,0" fill="#CD5C5C" stroke-width="2" opacity="0.7"/><path aria-label="Observed L_ij: 333; Predicted L_ij: 3.96819327961; county_i_name: Ventura; county_j_name: San Diego; L_ij_data: 333; predicted_L_ij_eq: 3.96819327961" role="graphics-symbol" aria-roledescription="circle" transform="translate(151.7309976182092,313.37566776635833)" d="M2.739,0A2.739,2.739,0,1,1,-2.739,0A2.739,2.739,0,1,1,2.739,0" fill="#CD5C5C" stroke-width="2" opacity="0.7"/><path aria-label="Observed L_ij: 34298; Predicted L_ij: 218630.922884; county_i_name: Los Angeles; county_j_name: Ventura; L_ij_data: 34298; predicted_L_ij_eq: 218630.922884" role="graphics-symbol" aria-roledescription="circle" transform="translate(272.6671593930661,69.09814693607315)" d="M2.739,0A2.739,2.739,0,1,1,-2.739,0A2.739,2.739,0,1,1,2.739,0" fill="#CD5C5C" stroke-width="2" opacity="0.7"/><path aria-label="Observed L_ij: 605; Predicted L_ij: 6731.26486103; county_i_name: Orange; county_j_name: Ventura; L_ij_data: 605; predicted_L_ij_eq: 6731.26486103" role="graphics-symbol" aria-roledescription="circle" transform="translate(167.28595865791843,148.61512080444228)" d="M2.739,0A2.739,2.739,0,1,1,-2.739,0A2.739,2.739,0,1,1,2.739,0" fill="#CD5C5C" stroke-width="2" opacity="0.7"/><path aria-label="Observed L_ij: 824; Predicted L_ij: 270.178593439; county_i_name: Riverside; county_j_name: Ventura; L_ij_data: 824; predicted_L_ij_eq: 270.178593439" role="graphics-symbol" aria-roledescription="circle" transform="translate(175.34109425821575,221.99576487180113)" d="M2.739,0A2.739,2.739,0,1,1,-2.739,0A2.739,2.739,0,1,1,2.739,0" fill="#CD5C5C" stroke-width="2" opacity="0.7"/><path aria-label="Observed L_ij: 512; Predicted L_ij: 1239.60602149; county_i_name: San Bernardino; county_j_name: Ventura; L_ij_data: 512; predicted_L_ij_eq: 1239.60602149" role="graphics-symbol" aria-roledescription="circle" transform="translate(162.9358641521384,187.25578557491437)" d="M2.739,0A2.739,2.739,0,1,1,-2.739,0A2.739,2.739,0,1,1,2.739,0" fill="#CD5C5C" stroke-width="2" opacity="0.7"/><path aria-label="Observed L_ij: 295; Predicted L_ij: 34.0404335401; county_i_name: San Diego; county_j_name: Ventura; L_ij_data: 295; predicted_L_ij_eq: 34.0404335401" role="graphics-symbol" aria-roledescription="circle" transform="translate(148.57734786581523,268.74612364445767)" d="M2.739,0A2.739,2.739,0,1,1,-2.739,0A2.739,2.739,0,1,1,2.739,0" fill="#CD5C5C" stroke-width="2" opacity="0.7"/><path aria-label="Observed L_ij: 321696; Predicted L_ij: 377235.076456; county_i_name: Ventura; county_j_name: Ventura; L_ij_data: 321696; predicted_L_ij_eq: 377235.076456" role="graphics-symbol" aria-roledescription="circle" transform="translate(331.1150467293915,56.635765148068735)" d="M2.739,0A2.739,2.739,0,1,1,-2.739,0A2.739,2.739,0,1,1,2.739,0" fill="#CD5C5C" stroke-width="2" opacity="0.7"/></g><g class="mark-group role-title"><g transform="translate(200,-18)"><path class="background" aria-hidden="true" d="M0,0h0v0h0Z" pointer-events="none"/><g><g class="mark-text role-title-text" role="graphics-symbol" aria-roledescription="title" aria-label="Title text 'Observed vs Predicted Commuting Flows'" pointer-events="none"><text text-anchor="middle" transform="translate(0,10)" font-family="sans-serif" font-size="13px" font-weight="bold" fill="#000" opacity="1">Observed vs Predicted Commuting Flows</text></g></g><path class="foreground" aria-hidden="true" d="" pointer-events="none" display="none"/></g></g></g><path class="foreground" aria-hidden="true" d="" display="none"/></g></g></g></svg>