<svg xmlns="http://www.w3.org/2000/svg" xmlns:xlink="http://www.w3.org/1999/xlink" version="1.1" class="marks" width="478" height="414" viewBox="0 0 478 414"><rect width="478" height="414" fill="white"/><g fill="none" stroke-miterlimit="10" transform="translate(72,27)"><g class="mark-group role-frame root" role="graphics-object" aria-roledescription="group mark container"><g transform="translate(0,0)"><path class="background" aria-hidden="true" d="M0.5,0.5h400v350h-400Z" stroke="#ddd"/><g><g class="mark-group role-axis" aria-hidden="true"><g transform="translate(0.5,350.5)"><path class="background" aria-hidden="true" d="M0,0h0v0h0Z" pointer-events="none"/><g><g class="mark-rule role-axis-grid" pointer-events="none"><line transform="translate(0,-350)" x2="0" y2="350" stroke="#ddd" stroke-width="1" opacity="1"/><line transform="translate(44,-350)" x2="0" y2="350" stroke="#ddd" stroke-width="1" opacity="1"/><line transform="translate(89,-350)" x2="0" y2="350" stroke="#ddd" stroke-width="1" opacity="1"/><line transform="translate(133,-350)" x2="0" y2="350" stroke="#ddd" stroke-width="1" opacity="1"/><line transform="translate(178,-350)" x2="0" y2="350" stroke="#ddd" stroke-width="1" opacity="1"/><line transform="translate(222,-350)" x2="0" y2="350" stroke="#ddd" stroke-width="1" opacity="1"/><line transform="translate(267,-350)" x2="0" y2="350" stroke="#ddd" stroke-width="1" opacity="1"/><line transform="translate(311,-350)" x2="0" y2="350" stroke="#ddd" stroke-width="1" opacity="1"/><line transform="translate(356,-350)" x2="0" y2="350" stroke="#ddd" stroke-width="1" opacity="1"/><line transform="translate(400,-350)" x2="0" y2="350" stroke="#ddd" stroke-width="1" opacity="1"/></g></g><path class="foreground" aria-hidden="true" d="" pointer-events="none" display="none"/></g></g><g class="mark-group role-axis" aria-hidden="true"><g transform="translate(0.5,0.5)"><path class="background" aria-hidden="true" d="M0,0h0v0h0Z" pointer-events="none"/><g><g class="mark-rule role-axis-grid" pointer-events="none"><line transform="translate(0,350)" x2="400" y2="0" stroke="#ddd" stroke-width="1" opacity="1"/><line transform="translate(0,311)" x2="400" y2="0" stroke="#ddd" stroke-width="1" opacity="1"/><line transform="translate(0,272)" x2="400" y2="0" stroke="#ddd" stroke-width="1" opacity="1"/><line transform="translate(0,233)" x2="400" y2="0" stroke="#ddd" stroke-width="1" opacity="1"/><line transform="translate(0,194)" x2="400" y2="0" stroke="#ddd" stroke-width="1" opacity="1"/><line transform="translate(0,156)" x2="400" y2="0" stroke="#ddd" stroke-width="1" opacity="1"/><line transform="translate(0,117)" x2="400" y2="0" stroke="#ddd" stroke-width="1" opacity="1"/><line transform="translate(0,78)" x2="400" y2="0" stroke="#ddd" stroke-width="1" opacity="1"/><line transform="translate(0,39)" x2="400" y2="0" stroke="#ddd" stroke-width="1" opacity="1"/><line transform="translate(0,0)" x2="400" y2="0" stroke="#ddd" stroke-width="1" opacity="1"/></g></g><path class="foreground" aria-hidden="true" d="" pointer-events="none" display="none"/></g></g><g class="mark-group role-axis" role="graphics-symbol" aria-roledescription="axis" aria-label="X-axis titled 'Observed L_ij' for a linear scale with values from 0 to 4,500,000"><g transform="translate(0.5,350.5)"><path class="background" aria-hidden="true" d="M0,0h0v0h0Z" pointer-events="none"/><g><g class="mark-rule role-axis-tick" pointer-events="none"><line transform="translate(0,0)" x2="0" y2="5" stroke="#888" stroke-width="1" opacity="1"/><line transform="translate(44,0)" x2="0" y2="5" stroke="#888" stroke-width="1" opacity="1"/><line transform="translate(89,0)" x2="0" y2="5" stroke="#888" stroke-width="1" opacity="1"/><line transform="translate(133,0)" x2="0" y2="5" stroke="#888" stroke-width="1" opacity="1"/><line transform="translate(178,0)" x2="0" y2="5" stroke="#888" stroke-width="1" opacity="1"/><line transform="translate(222,0)" x2="0" y2="5" stroke="#888" stroke-width="1" opacity="1"/><line transform="translate(267,0)" x2="0" y2="5" stroke="#888" stroke-width="1" opacity="1"/><line transform="translate(311,0)" x2="0" y2="5" stroke="#888" stroke-width="1" opacity="1"/><line transform="translate(356,0)" x2="0" y2="5" stroke="#888" stroke-width="1" opacity="1"/><line transform="translate(400,0)" x2="0" y2="5" stroke="#888" stroke-width="1" opacity="1"/></g><g class="mark-text role-axis-label" pointer-events="none"><text text-anchor="start" transform="translate(0,15)" font-family="sans-serif" font-size="10px" fill="#000" opacity="1">0</text><text text-anchor="middle" transform="translate(44.44444444444444,15)" font-family="sans-serif" font-size="10px" fill="#000" opacity="0">500,000</text><text text-anchor="middle" transform="translate(88.88888888888889,15)" font-family="sans-serif" font-size="10px" fill="#000" opacity="1">1,000,000</text><text text-anchor="middle" transform="translate(133.33333333333331,15)" font-family="sans-serif" font-size="10px" fill="#000" opacity="0">1,500,000</text><text text-anchor="middle" transform="translate(177.77777777777777,15)" font-family="sans-serif" font-size="10px" fill="#000" opacity="1">2,000,000</text><text text-anchor="middle" transform="translate(222.22222222222223,15)" font-family="sans-serif" font-size="10px" fill="#000" opacity="0">2,500,000</text><text text-anchor="middle" transform="translate(266.66666666666663,15)" font-family="sans-serif" font-size="10px" fill="#000" opacity="1">3,000,000</text><text text-anchor="middle" transform="translate(311.11111111111114,15)" font-family="sans-serif" font-size="10px" fill="#000" opacity="0">3,500,000</text><text text-anchor="middle" transform="translate(355.55555555555554,15)" font-family="sans-serif" font-size="10px" fill="#000" opacity="1">4,000,000</text><text text-anchor="end" transform="translate(400,15)" font-family="sans-serif" font-size="10px" fill="#000" opacity="0">4,500,000</text></g><g class="mark-rule role-axis-domain" pointer-events="none"><line transform="translate(0,0)" x2="400" y2="0" stroke="#888" stroke-width="1" opacity="1"/></g><g class="mark-text role-axis-title" pointer-events="none"><text text-anchor="middle" transform="translate(200,30)" font-family="sans-serif" font-size="11px" font-weight="bold" fill="#000" opacity="1">Observed L_ij</text></g></g><path class="foreground" aria-hidden="true" d="" pointer-events="none" display="none"/></g></g><g class="mark-group role-axis" role="graphics-symbol" aria-roledescription="axis" aria-label="Y-axis titled 'Predicted L_ij' for a linear scale with values from 0 to 4,500,000"><g transform="translate(0.5,0.5)"><path class="background" aria-hidden="true" d="M0,0h0v0h0Z" pointer-events="none"/><g><g class="mark-rule role-axis-tick" pointer-events="none"><line transform="translate(0,350)" x2="-5" y2="0" stroke="#888" stroke-width="1" opacity="1"/><line transform="translate(0,311)" x2="-5" y2="0" stroke="#888" stroke-width="1" opacity="1"/><line transform="translate(0,272)" x2="-5" y2="0" stroke="#888" stroke-width="1" opacity="1"/><line transform="translate(0,233)" x2="-5" y2="0" stroke="#888" stroke-width="1" opacity="1"/><line transform="translate(0,194)" x2="-5" y2="0" stroke="#888" stroke-width="1" opacity="1"/><line transform="translate(0,156)" x2="-5" y2="0" stroke="#888" stroke-width="1" opacity="1"/><line transform="translate(0,117)" x2="-5" y2="0" stroke="#888" stroke-width="1" opacity="1"/><line transform="translate(0,78)" x2="-5" y2="0" stroke="#888" stroke-width="1" opacity="1"/><line transform="translate(0,39)" x2="-5" y2="0" stroke="#888" stroke-width="1" opacity="1"/><line transform="translate(0,0)" x2="-5" y2="0" stroke="#888" stroke-width="1" opacity="1"/></g><g class="mark-text role-axis-label" pointer-events="none"><text text-anchor="end" transform="translate(-7,353)" font-family="sans-serif" font-size="10px" fill="#000" opacity="1">0</text><text text-anchor="end" transform="translate(-7,314.1111111111111)" font-family="sans-serif" font-size="10px" fill="#000" opacity="1">500,000</text><text text-anchor="end" transform="translate(-7,275.22222222222223)" font-family="sans-serif" font-size="10px" fill="#000" opacity="1">1,000,000</text><text text-anchor="end" transform="translate(-7,236.33333333333337)" font-family="sans-serif" font-size="10px" fill="#000" opacity="1">1,500,000</text><text text-anchor="end" transform="translate(-7,197.44444444444446)" font-family="sans-serif" font-size="10px" fill="#000" opacity="1">2,000,000</text><text text-anchor="end" transform="translate(-7,158.55555555555554)" font-family="sans-serif" font-size="10px" fill="#000" opacity="1">2,500,000</text><text text-anchor="end" transform="translate(-7,119.66666666666669)" font-family="sans-serif" font-size="10px" fill="#000" opacity="1">3,000,000</text><text text-anchor="end" transform="translate(-7,80.77777777777777)" font-family="sans-serif" font-size="10px" fill="#000" opacity="1">3,500,000</text><text text-anchor="end" transform="translate(-7,41.88888888888891)" font-family="sans-serif" font-size="10px" fill="#000" opacity="1">4,000,000</text><text text-anchor="end" transform="translate(-7,3)" font-family="sans-serif" font-size="10px" fill="#000" opacity="1">4,500,000</text></g><g class="mark-rule role-axis-domain" pointer-events="none"><line transform="translate(0,350)" x2="0" y2="-350" stroke="#888" stroke-width="1" opacity="1"/></g><g class="mark-text role-axis-title" pointer-events="none"><text text-anchor="middle" transform="translate(-55.4873046875,175) rotate(-90) translate(0,-2)" font-family="sans-serif" font-size="11px" font-weight="bold" fill="#000" opacity="1">Predicted L_ij</text></g></g><path class="foreground" aria-hidden="true" d="" pointer-events="none" display="none"/></g></g><g class="mark-line role-mark layer_0_marks" role="graphics-object" aria-roledescription="line mark container"><path aria-label="x: 0; y: 0" role="graphics-symbol" aria-roledescription="line mark" d="M0,350L393.735,5.482" stroke="#898989" stroke-width="0.5" stroke-dasharray="5,5"/></g><g class="mark-symbol role-mark layer_1_marks" role="graphics-object" aria-roledescription="symbol mark container"><path aria-label="Observed L_ij: 4429523; Predicted L_ij: 3656523.05978; county_i_name: Los Angeles; county_j_name: Los Angeles; L_ij_data: 4429523; predicted_L_ij_eq: 3656523.05978" role="graphics-symbol" aria-roledescription="circle" transform="translate(393.7353777777778,65.60376201710027)" d="M2.739,0A2.739,2.739,0,1,1,-2.739,0A2.739,2.739,0,1,1,2.739,0" fill="#CD5C5C" stroke-width="2" opacity="0.7"/><path aria-label="Observed L_ij: 180250; Predicted L_ij: 257442.827566; county_i_name: Orange; county_j_name: Los Angeles; L_ij_data: 180250; predicted_L_ij_eq: 257442.827566" role="graphics-symbol" aria-roledescription="circle" transform="translate(16.022222222222222,329.9766689670815)" d="M2.739,0A2.739,2.739,0,1,1,-2.739,0A2.739,2.739,0,1,1,2.739,0" fill="#CD5C5C" stroke-width="2" opacity="0.7"/><path aria-label="Observed L_ij: 53172; Predicted L_ij: 12826.1746327; county_i_name: Riverside; county_j_name: Los Angeles; L_ij_data: 53172; predicted_L_ij_eq: 12826.1746327" role="graphics-symbol" aria-roledescription="circle" transform="translate(4.7264,349.0024086396752)" d="M2.739,0A2.739,2.739,0,1,1,-2.739,0A2.739,2.739,0,1,1,2.739,0" fill="#CD5C5C" stroke-width="2" opacity="0.7"/><path aria-label="Observed L_ij: 132992; Predicted L_ij: 48871.2055052; county_i_name: San Bernardino; county_j_name: Los Angeles; L_ij_data: 132992; predicted_L_ij_eq: 48871.2055052" role="graphics-symbol" aria-roledescription="circle" transform="translate(11.821511111111112,346.1989062384854)" d="M2.739,0A2.739,2.739,0,1,1,-2.739,0A2.739,2.739,0,1,1,2.739,0" fill="#CD5C5C" stroke-width="2" opacity="0.7"/><path aria-label="Observed L_ij: 6075; Predicted L_ij: 978.765089889; county_i_name: San Diego; county_j_name: Los Angeles; L_ij_data: 6075; predicted_L_ij_eq: 978.765089889" role="graphics-symbol" aria-roledescription="circle" transform="translate(0.54,349.92387382634195)" d="M2.739,0A2.739,2.739,0,1,1,-2.739,0A2.739,2.739,0,1,1,2.739,0" fill="#CD5C5C" stroke-width="2" opacity="0.7"/><path aria-label="Observed L_ij: 66180; Predicted L_ij: 11163.3599012; county_i_name: Ventura; county_j_name: Los Angeles; L_ij_data: 66180; predicted_L_ij_eq: 11163.3599012" role="graphics-symbol" aria-roledescription="circle" transform="translate(5.882666666666666,349.1317386743546)" d="M2.739,0A2.739,2.739,0,1,1,-2.739,0A2.739,2.739,0,1,1,2.739,0" fill="#CD5C5C" stroke-width="2" opacity="0.7"/><path aria-label="Observed L_ij: 196169; Predicted L_ij: 746884.116697; county_i_name: Los Angeles; county_j_name: Orange; L_ij_data: 196169; predicted_L_ij_eq: 746884.116697" role="graphics-symbol" aria-roledescription="circle" transform="translate(17.437244444444445,291.9090131457961)" d="M2.739,0A2.739,2.739,0,1,1,-2.739,0A2.739,2.739,0,1,1,2.739,0" fill="#CD5C5C" stroke-width="2" opacity="0.7"/><path aria-label="Observed L_ij: 1325458; Predicted L_ij: 1153402.87413; county_i_name: Orange; county_j_name: Orange; L_ij_data: 1325458; predicted_L_ij_eq: 1153402.87413" role="graphics-symbol" aria-roledescription="circle" transform="translate(117.81848888888888,260.29088756779714)" d="M2.739,0A2.739,2.739,0,1,1,-2.739,0A2.739,2.739,0,1,1,2.739,0" fill="#CD5C5C" stroke-width="2" opacity="0.7"/><path aria-label="Observed L_ij: 75863; Predicted L_ij: 90896.5775719; county_i_name: Riverside; county_j_name: Orange; L_ij_data: 75863; predicted_L_ij_eq: 90896.5775719" role="graphics-symbol" aria-roledescription="circle" transform="translate(6.743377777777777,342.9302661888489)" d="M2.739,0A2.739,2.739,0,1,1,-2.739,0A2.739,2.739,0,1,1,2.739,0" fill="#CD5C5C" stroke-width="2" opacity="0.7"/><path aria-label="Observed L_ij: 37327; Predicted L_ij: 103139.999149; county_i_name: San Bernardino; county_j_name: Orange; L_ij_data: 37327; predicted_L_ij_eq: 103139.999149" role="graphics-symbol" aria-roledescription="circle" transform="translate(3.3179555555555553,341.97800006620224)" d="M2.739,0A2.739,2.739,0,1,1,-2.739,0A2.739,2.739,0,1,1,2.739,0" fill="#CD5C5C" stroke-width="2" opacity="0.7"/><path aria-label="Observed L_ij: 12120; Predicted L_ij: 12695.4081969; county_i_name: San Diego; county_j_name: Orange; L_ij_data: 12120; predicted_L_ij_eq: 12695.4081969" role="graphics-symbol" aria-roledescription="circle" transform="translate(1.0773333333333333,349.0125793624641)" d="M2.739,0A2.739,2.739,0,1,1,-2.739,0A2.739,2.739,0,1,1,2.739,0" fill="#CD5C5C" stroke-width="2" opacity="0.7"/><path aria-label="Observed L_ij: 576; Predicted L_ij: 997.131520136; county_i_name: Ventura; county_j_name: Orange; L_ij_data: 576; predicted_L_ij_eq: 997.131520136" role="graphics-symbol" aria-roledescription="circle" transform="translate(0.051199999999999996,349.92244532621163)" d="M2.739,0A2.739,2.739,0,1,1,-2.739,0A2.739,2.739,0,1,1,2.739,0" fill="#CD5C5C" stroke-width="2" opacity="0.7"/><path aria-label="Observed L_ij: 16786; Predicted L_ij: 19902.1500707; county_i_name: Los Angeles; county_j_name: Riverside; L_ij_data: 16786; predicted_L_ij_eq: 19902.1500707" role="graphics-symbol" aria-roledescription="circle" transform="translate(1.4920888888888888,348.45205499450464)" d="M2.739,0A2.739,2.739,0,1,1,-2.739,0A2.739,2.739,0,1,1,2.739,0" fill="#CD5C5C" stroke-width="2" opacity="0.7"/><path aria-label="Observed L_ij: 16208; Predicted L_ij: 48615.8577368; county_i_name: Orange; county_j_name: Riverside; L_ij_data: 16208; predicted_L_ij_eq: 48615.8577368" role="graphics-symbol" aria-roledescription="circle" transform="translate(1.4407111111111113,346.2187666204687)" d="M2.739,0A2.739,2.739,0,1,1,-2.739,0A2.739,2.739,0,1,1,2.739,0" fill="#CD5C5C" stroke-width="2" opacity="0.7"/><path aria-label="Observed L_ij: 725518; Predicted L_ij: 624669.646755; county_i_name: Riverside; county_j_name: Riverside; L_ij_data: 725518; predicted_L_ij_eq: 624669.646755" role="graphics-symbol" aria-roledescription="circle" transform="translate(64.49048888888889,301.4145830301719)" d="M2.739,0A2.739,2.739,0,1,1,-2.739,0A2.739,2.739,0,1,1,2.739,0" fill="#CD5C5C" stroke-width="2" opacity="0.7"/><path aria-label="Observed L_ij: 78508; Predicted L_ij: 200346.947225; county_i_name: San Bernardino; county_j_name: Riverside; L_ij_data: 78508; predicted_L_ij_eq: 200346.947225" role="graphics-symbol" aria-roledescription="circle" transform="translate(6.978488888888888,334.41745966027696)" d="M2.739,0A2.739,2.739,0,1,1,-2.739,0A2.739,2.739,0,1,1,2.739,0" fill="#CD5C5C" stroke-width="2" opacity="0.7"/><path aria-label="Observed L_ij: 6989; Predicted L_ij: 19244.9271251; county_i_name: San Diego; county_j_name: Riverside; L_ij_data: 6989; predicted_L_ij_eq: 19244.9271251" role="graphics-symbol" aria-roledescription="circle" transform="translate(0.6212444444444444,348.503172334713)" d="M2.739,0A2.739,2.739,0,1,1,-2.739,0A2.739,2.739,0,1,1,2.739,0" fill="#CD5C5C" stroke-width="2" opacity="0.7"/><path aria-label="Observed L_ij: 177; Predicted L_ij: 21.4060789453; county_i_name: Ventura; county_j_name: Riverside; L_ij_data: 177; predicted_L_ij_eq: 21.4060789453" role="graphics-symbol" aria-roledescription="circle" transform="translate(0.015733333333333332,349.99833508274867)" d="M2.739,0A2.739,2.739,0,1,1,-2.739,0A2.739,2.739,0,1,1,2.739,0" fill="#CD5C5C" stroke-width="2" opacity="0.7"/><path aria-label="Observed L_ij: 60779; Predicted L_ij: 98104.1862116; county_i_name: Los Angeles; county_j_name: San Bernardino; L_ij_data: 60779; predicted_L_ij_eq: 98104.1862116" role="graphics-symbol" aria-roledescription="circle" transform="translate(5.402577777777777,342.36967440576205)" d="M2.739,0A2.739,2.739,0,1,1,-2.739,0A2.739,2.739,0,1,1,2.739,0" fill="#CD5C5C" stroke-width="2" opacity="0.7"/><path aria-label="Observed L_ij: 12934; Predicted L_ij: 71365.6431701; county_i_name: Orange; county_j_name: San Bernardino; L_ij_data: 12934; predicted_L_ij_eq: 71365.6431701" role="graphics-symbol" aria-roledescription="circle" transform="translate(1.1496888888888888,344.44933886454487)" d="M2.739,0A2.739,2.739,0,1,1,-2.739,0A2.739,2.739,0,1,1,2.739,0" fill="#CD5C5C" stroke-width="2" opacity="0.7"/><path aria-label="Observed L_ij: 113716; Predicted L_ij: 259187.688755; county_i_name: Riverside; county_j_name: San Bernardino; L_ij_data: 113716; predicted_L_ij_eq: 259187.688755" role="graphics-symbol" aria-roledescription="circle" transform="translate(10.108088888888888,329.8409575412435)" d="M2.739,0A2.739,2.739,0,1,1,-2.739,0A2.739,2.739,0,1,1,2.739,0" fill="#CD5C5C" stroke-width="2" opacity="0.7"/><path aria-label="Observed L_ij: 657249; Predicted L_ij: 553367.855336; county_i_name: San Bernardino; county_j_name: San Bernardino; L_ij_data: 657249; predicted_L_ij_eq: 553367.855336" role="graphics-symbol" aria-roledescription="circle" transform="translate(58.422133333333335,306.960277918348)" d="M2.739,0A2.739,2.739,0,1,1,-2.739,0A2.739,2.739,0,1,1,2.739,0" fill="#CD5C5C" stroke-width="2" opacity="0.7"/><path aria-label="Observed L_ij: 1209; Predicted L_ij: 2126.40433359; county_i_name: San Diego; county_j_name: San Bernardino; L_ij_data: 1209; predicted_L_ij_eq: 2126.40433359" role="graphics-symbol" aria-roledescription="circle" transform="translate(0.10746666666666667,349.8346129962765)" d="M2.739,0A2.739,2.739,0,1,1,-2.739,0A2.739,2.739,0,1,1,2.739,0" fill="#CD5C5C" stroke-width="2" opacity="0.7"/><path aria-label="Observed L_ij: 586; Predicted L_ij: 127.057850318; county_i_name: Ventura; county_j_name: San Bernardino; L_ij_data: 586; predicted_L_ij_eq: 127.057850318" role="graphics-symbol" aria-roledescription="circle" transform="translate(0.052088888888888886,349.99011772275304)" d="M2.739,0A2.739,2.739,0,1,1,-2.739,0A2.739,2.739,0,1,1,2.739,0" fill="#CD5C5C" stroke-width="2" opacity="0.7"/><path aria-label="Observed L_ij: 4724; Predicted L_ij: 2234.56435623; county_i_name: Los Angeles; county_j_name: San Diego; L_ij_data: 4724; predicted_L_ij_eq: 2234.56435623" role="graphics-symbol" aria-roledescription="circle" transform="translate(0.41991111111111107,349.826200550071)" d="M2.739,0A2.739,2.739,0,1,1,-2.739,0A2.739,2.739,0,1,1,2.739,0" fill="#CD5C5C" stroke-width="2" opacity="0.7"/><path aria-label="Observed L_ij: 12094; Predicted L_ij: 9990.53253759; county_i_name: Orange; county_j_name: San Diego; L_ij_data: 12094; predicted_L_ij_eq: 9990.53253759" role="graphics-symbol" aria-roledescription="circle" transform="translate(1.075022222222222,349.22295858040997)" d="M2.739,0A2.739,2.739,0,1,1,-2.739,0A2.739,2.739,0,1,1,2.739,0" fill="#CD5C5C" stroke-width="2" opacity="0.7"/><path aria-label="Observed L_ij: 47073; Predicted L_ij: 28315.7336915; county_i_name: Riverside; county_j_name: San Diego; L_ij_data: 47073; predicted_L_ij_eq: 28315.7336915" role="graphics-symbol" aria-roledescription="circle" transform="translate(4.184266666666667,347.79766515732797)" d="M2.739,0A2.739,2.739,0,1,1,-2.739,0A2.739,2.739,0,1,1,2.739,0" fill="#CD5C5C" stroke-width="2" opacity="0.7"/><path aria-label="Observed L_ij: 2796; Predicted L_ij: 2418.38676396; county_i_name: San Bernardino; county_j_name: San Diego; L_ij_data: 2796; predicted_L_ij_eq: 2418.38676396" role="graphics-symbol" aria-roledescription="circle" transform="translate(0.24853333333333333,349.8119032516918)" d="M2.739,0A2.739,2.739,0,1,1,-2.739,0A2.739,2.739,0,1,1,2.739,0" fill="#CD5C5C" stroke-width="2" opacity="0.7"/><path aria-label="Observed L_ij: 1588755; Predicted L_ij: 1580363.45482; county_i_name: San Diego; county_j_name: San Diego; L_ij_data: 1588755; predicted_L_ij_eq: 1580363.45482" role="graphics-symbol" aria-roledescription="circle" transform="translate(141.22266666666667,227.08284240281307)" d="M2.739,0A2.739,2.739,0,1,1,-2.739,0A2.739,2.739,0,1,1,2.739,0" fill="#CD5C5C" stroke-width="2" opacity="0.7"/><path aria-label="Observed L_ij: 333; Predicted L_ij: 3.96819327961; county_i_name: Ventura; county_j_name: San Diego; L_ij_data: 333; predicted_L_ij_eq: 3.96819327961" role="graphics-symbol" aria-roledescription="circle" transform="translate(0.029599999999999998,349.99969136274495)" d="M2.739,0A2.739,2.739,0,1,1,-2.739,0A2.739,2.739,0,1,1,2.739,0" fill="#CD5C5C" stroke-width="2" opacity="0.7"/><path aria-label="Observed L_ij: 34298; Predicted L_ij: 218630.922884; county_i_name: Los Angeles; county_j_name: Ventura; L_ij_data: 34298; predicted_L_ij_eq: 218630.922884" role="graphics-symbol" aria-roledescription="circle" transform="translate(3.048711111111111,332.9953726645437)" d="M2.739,0A2.739,2.739,0,1,1,-2.739,0A2.739,2.739,0,1,1,2.739,0" fill="#CD5C5C" stroke-width="2" opacity="0.7"/><path aria-label="Observed L_ij: 605; Predicted L_ij: 6731.26486103; county_i_name: Orange; county_j_name: Ventura; L_ij_data: 605; predicted_L_ij_eq: 6731.26486103" role="graphics-symbol" aria-roledescription="circle" transform="translate(0.05377777777777778,349.4764571774756)" d="M2.739,0A2.739,2.739,0,1,1,-2.739,0A2.739,2.739,0,1,1,2.739,0" fill="#CD5C5C" stroke-width="2" opacity="0.7"/><path aria-label="Observed L_ij: 824; Predicted L_ij: 270.178593439; county_i_name: Riverside; county_j_name: Ventura; L_ij_data: 824; predicted_L_ij_eq: 270.178593439" role="graphics-symbol" aria-roledescription="circle" transform="translate(0.07324444444444445,349.9789861093992)" d="M2.739,0A2.739,2.739,0,1,1,-2.739,0A2.739,2.739,0,1,1,2.739,0" fill="#CD5C5C" stroke-width="2" opacity="0.7"/><path aria-label="Observed L_ij: 512; Predicted L_ij: 1239.60602149; county_i_name: San Bernardino; county_j_name: Ventura; L_ij_data: 512; predicted_L_ij_eq: 1239.60602149" role="graphics-symbol" aria-roledescription="circle" transform="translate(0.04551111111111111,349.90358619832887)" d="M2.739,0A2.739,2.739,0,1,1,-2.739,0A2.739,2.739,0,1,1,2.739,0" fill="#CD5C5C" stroke-width="2" opacity="0.7"/><path aria-label="Observed L_ij: 295; Predicted L_ij: 34.0404335401; county_i_name: San Diego; county_j_name: Ventura; L_ij_data: 295; predicted_L_ij_eq: 34.0404335401" role="graphics-symbol" aria-roledescription="circle" transform="translate(0.026222222222222223,349.99735241072466)" d="M2.739,0A2.739,2.739,0,1,1,-2.739,0A2.739,2.739,0,1,1,2.739,0" fill="#CD5C5C" stroke-width="2" opacity="0.7"/><path aria-label="Observed L_ij: 321696; Predicted L_ij: 377235.076456; county_i_name: Ventura; county_j_name: Ventura; L_ij_data: 321696; predicted_L_ij_eq: 377235.076456" role="graphics-symbol" aria-roledescription="circle" transform="translate(28.5952,320.65949405340933)" d="M2.739,0A2.739,2.739,0,1,1,-2.739,0A2.739,2.739,0,1,1,2.739,0" fill="#CD5C5C" stroke-width="2" opacity="0.7"/></g><g class="mark-group role-title"><g transform="translate(200,-22)"><path class="background" aria-hidden="true" d="M0,0h0v0h0Z" pointer-events="none"/><g><g class="mark-text role-title-text" role="graphics-symbol" aria-roledescription="title" aria-label="Title text 'Observed vs Predicted Commuting Flows'" pointer-events="none"><text text-anchor="middle" transform="translate(0,10)" font-family="sans-serif" font-size="13px" font-weight="bold" fill="#000" opacity="1">Observed vs Predicted Commuting Flows</text></g></g><path class="foreground" aria-hidden="true" d="" pointer-events="none" display="none"/></g></g></g><path class="foreground" aria-hidden="true" d="" display="none"/></g></g></g></svg>