<svg xmlns="http://www.w3.org/2000/svg" xmlns:xlink="http://www.w3.org/1999/xlink" version="1.1" class="marks" width="638" height="277" viewBox="0 0 638 277"><rect width="638" height="277" fill="white"/><g fill="none" stroke-miterlimit="10" transform="translate(7,22)"><g class="mark-group role-frame root" role="graphics-object" aria-roledescription="group mark container"><g transform="translate(0,0)"><path class="background" aria-hidden="true" d="M0,0h0v250h0Z"/><g><g class="mark-group role-scope concat_0_group" role="graphics-object" aria-roledescription="group mark container"><g transform="translate(0,0)"><path class="background" aria-hidden="true" d="M0,0h250v250h-250Z"/><g><g class="mark-shape role-mark concat_0_marks" role="graphics-object" aria-roledescription="shape mark container"><path aria-label="p_i (eq): 0.85220423608" role="graphics-symbol" aria-roledescription="geoshape" transform="translate(0,0)" d="M67.676,151.924L58.69,153.599L53.163,150.205L54.208,143.994L49.052,135.851L41.317,136.255L36.886,137.969L31.119,135.566L31.608,131.068L38.524,125.939L44.014,125.94L45.44,119.142L34.362,91.713L35.562,90.102L89.518,89.837L89.534,104.472L90.477,119.286L89.016,126.281L84.261,138.121L75.465,138.133ZM44.012,163.286L50.604,160.875L58.054,164.432L62.449,169.579L62.611,174.909L59.482,176.237L50.84,173.596L49.233,169.047ZM43.557,187.553L49.746,185.705L53.986,191.781L60.88,198.099L59.672,201.972L54.546,203.241L49.923,199.848Z" fill="rgb(253, 201, 180)" stroke="#cdcdcd" stroke-width="1.5"/><path aria-label="p_i (eq): 0.877874158647" role="graphics-symbol" aria-roledescription="geoshape" transform="translate(0,0)" d="M84.261,138.121L89.264,142.241L95.587,151.035L101.09,153.839L96.691,162.237L93.563,165.038L92.082,171.564L86.156,167.419L82.747,163.017L77.396,159.833L67.676,151.924L75.465,138.133Z" fill="rgb(252, 163, 133)" stroke="#cdcdcd" stroke-width="1.5"/><path aria-label="p_i (eq): 0.925622794396" role="graphics-symbol" aria-roledescription="geoshape" transform="translate(0,0)" d="M161.482,166.557L118.466,166.506L108.895,166.23L103.008,163.029L96.691,162.237L101.09,153.839L95.587,151.035L89.264,142.241L94.481,133.339L102.802,133.316L109.621,134.945L123.082,134.905L123.073,133.303L151.672,133.389L196.436,133.303L196.443,130.903L236.488,130.8L236.359,133.934L231.999,139.276L233.711,151.77L232.451,159.625L227.771,166.142L183.092,166.506Z" fill="rgb(245, 84, 61)" stroke="#cdcdcd" stroke-width="1.5"/><path aria-label="p_i (eq): 0.900587263784" role="graphics-symbol" aria-roledescription="geoshape" transform="translate(0,0)" d="M89.264,142.241L84.261,138.121L89.016,126.281L90.477,119.286L89.534,104.472L89.518,89.837L91.124,89.852L91.218,48.564L91.027,35.52L125.752,35.626L177.352,35.724L181.333,34.85L199.005,51.957L227.482,79.893L227.596,87.384L234.842,95.902L236.477,102.487L240.844,110.347L250,118.513L244.732,125.63L236.488,130.8L196.443,130.903L196.436,133.303L151.672,133.389L123.073,133.303L123.082,134.905L109.621,134.945L102.802,133.316L94.481,133.339Z" fill="rgb(251, 126, 95)" stroke="#cdcdcd" stroke-width="1.5"/><path aria-label="p_i (eq): 0.941330399952" role="graphics-symbol" aria-roledescription="geoshape" transform="translate(0,0)" d="M92.082,171.564L93.563,165.038L96.691,162.237L103.008,163.029L108.895,166.23L118.466,166.506L161.482,166.557L161.65,185.646L160.643,185.648L160.514,210.351L110.545,215.15L109.715,210.2L105.276,206.494L104.318,198.355L105.169,194.96L102.778,185.627L100.063,180.073Z" fill="rgb(232, 58, 45)" stroke="#cdcdcd" stroke-width="1.5"/><path aria-label="p_i (eq): 0.880035555005" role="graphics-symbol" aria-roledescription="geoshape" transform="translate(0,0)" d="M8.748,85.479L16.354,87.07L17.895,90.292L29.928,90.436L34.362,91.713L45.44,119.142L44.014,125.94L38.524,125.939L31.608,131.068L31.119,135.566L19.011,131.746L13.648,122.128L6.144,117.208L8.815,110.1ZM7.64,131.71L13.351,131.39L15.453,135.326L11.623,137.718L6.538,136.095ZM0,174.463L5.036,171.516L12.511,176.565L9.201,180.645L2.814,179.585Z" fill="rgb(252, 159, 129)" stroke="#cdcdcd" stroke-width="1.5"/></g><g class="mark-group role-title"><g transform="translate(125,-17)"><path class="background" aria-hidden="true" d="M0,0h0v0h0Z" pointer-events="none"/><g><g class="mark-text role-title-text" role="graphics-symbol" aria-roledescription="title" aria-label="Title text 'p_i EQ'" pointer-events="none"><text text-anchor="middle" transform="translate(0,10)" font-family="sans-serif" font-size="13px" font-weight="bold" fill="#000" opacity="1">p_i EQ</text></g></g><path class="foreground" aria-hidden="true" d="" pointer-events="none" display="none"/></g></g></g><path class="foreground" aria-hidden="true" d="" display="none"/></g></g><g class="mark-group role-scope concat_1_group" role="graphics-object" aria-roledescription="group mark container"><g transform="translate(274,0)"><path class="background" aria-hidden="true" d="M0,0h250v250h-250Z"/><g><g class="mark-shape role-mark concat_1_marks" role="graphics-object" aria-roledescription="shape mark container"><path aria-label="p_i (cf): 0.995397198602" role="graphics-symbol" aria-roledescription="geoshape" transform="translate(0,0)" d="M67.676,151.924L58.69,153.599L53.163,150.205L54.208,143.994L49.052,135.851L41.317,136.255L36.886,137.969L31.119,135.566L31.608,131.068L38.524,125.939L44.014,125.94L45.44,119.142L34.362,91.713L35.562,90.102L89.518,89.837L89.534,104.472L90.477,119.286L89.016,126.281L84.261,138.121L75.465,138.133ZM44.012,163.286L50.604,160.875L58.054,164.432L62.449,169.579L62.611,174.909L59.482,176.237L50.84,173.596L49.233,169.047ZM43.557,187.553L49.746,185.705L53.986,191.781L60.88,198.099L59.672,201.972L54.546,203.241L49.923,199.848Z" fill="rgb(151, 11, 19)" stroke="#ababab" stroke-width="1.5"/><path aria-label="p_i (cf): 0.938170351846" role="graphics-symbol" aria-roledescription="geoshape" transform="translate(0,0)" d="M84.261,138.121L89.264,142.241L95.587,151.035L101.09,153.839L96.691,162.237L93.563,165.038L92.082,171.564L86.156,167.419L82.747,163.017L77.396,159.833L67.676,151.924L75.465,138.133Z" fill="rgb(236, 63, 47)" stroke="#ababab" stroke-width="1.5"/><path aria-label="p_i (cf): 0.962836657413" role="graphics-symbol" aria-roledescription="geoshape" transform="translate(0,0)" d="M161.482,166.557L118.466,166.506L108.895,166.23L103.008,163.029L96.691,162.237L101.09,153.839L95.587,151.035L89.264,142.241L94.481,133.339L102.802,133.316L109.621,134.945L123.082,134.905L123.073,133.303L151.672,133.389L196.436,133.303L196.443,130.903L236.488,130.8L236.359,133.934L231.999,139.276L233.711,151.77L232.451,159.625L227.771,166.142L183.092,166.506Z" fill="rgb(205, 31, 31)" stroke="#ababab" stroke-width="1.5"/><path aria-label="p_i (cf): 0.949986769407" role="graphics-symbol" aria-roledescription="geoshape" transform="translate(0,0)" d="M89.264,142.241L84.261,138.121L89.016,126.281L90.477,119.286L89.534,104.472L89.518,89.837L91.124,89.852L91.218,48.564L91.027,35.52L125.752,35.626L177.352,35.724L181.333,34.85L199.005,51.957L227.482,79.893L227.596,87.384L234.842,95.902L236.477,102.487L240.844,110.347L250,118.513L244.732,125.63L236.488,130.8L196.443,130.903L196.436,133.303L151.672,133.389L123.073,133.303L123.082,134.905L109.621,134.945L102.802,133.316L94.481,133.339Z" fill="rgb(223, 46, 39)" stroke="#ababab" stroke-width="1.5"/><path aria-label="p_i (cf): 0.970808502629" role="graphics-symbol" aria-roledescription="geoshape" transform="translate(0,0)" d="M92.082,171.564L93.563,165.038L96.691,162.237L103.008,163.029L108.895,166.23L118.466,166.506L161.482,166.557L161.65,185.646L160.643,185.648L160.514,210.351L110.545,215.15L109.715,210.2L105.276,206.494L104.318,198.355L105.169,194.96L102.778,185.627L100.063,180.073Z" fill="rgb(194, 24, 28)" stroke="#ababab" stroke-width="1.5"/><path aria-label="p_i (cf): 0.939301473007" role="graphics-symbol" aria-roledescription="geoshape" transform="translate(0,0)" d="M8.748,85.479L16.354,87.07L17.895,90.292L29.928,90.436L34.362,91.713L45.44,119.142L44.014,125.94L38.524,125.939L31.608,131.068L31.119,135.566L19.011,131.746L13.648,122.128L6.144,117.208L8.815,110.1ZM7.64,131.71L13.351,131.39L15.453,135.326L11.623,137.718L6.538,136.095ZM0,174.463L5.036,171.516L12.511,176.565L9.201,180.645L2.814,179.585Z" fill="rgb(235, 61, 46)" stroke="#ababab" stroke-width="1.5"/></g><g class="mark-group role-title"><g transform="translate(125,-17)"><path class="background" aria-hidden="true" d="M0,0h0v0h0Z" pointer-events="none"/><g><g class="mark-text role-title-text" role="graphics-symbol" aria-roledescription="title" aria-label="Title text 'p_i CF'" pointer-events="none"><text text-anchor="middle" transform="translate(0,10)" font-family="sans-serif" font-size="13px" font-weight="bold" fill="#000" opacity="1">p_i CF</text></g></g><path class="foreground" aria-hidden="true" d="" pointer-events="none" display="none"/></g></g></g><path class="foreground" aria-hidden="true" d="" display="none"/></g></g><g class="mark-group role-legend" role="graphics-symbol" aria-roledescription="legend" aria-label="Gradient legend titled 'p_i (eq), p_i (cf)' for fill color with values from 0.85 to 1.00"><g transform="translate(544,0)"><path class="background" aria-hidden="true" d="M0,0h82v216h-82Z" pointer-events="none"/><g><g class="mark-group role-legend-entry"><g transform="translate(0,16)"><path class="background" aria-hidden="true" d="M0,0h0v0h0Z" pointer-events="none"/><g><g class="mark-rect role-legend-gradient" pointer-events="none"><path d="M0,0h16v200h-16Z" fill="url(#gradient_2)" stroke="#ddd" stroke-width="0" opacity="1"/></g><g class="mark-text role-legend-label" pointer-events="none"><text text-anchor="start" transform="translate(18,198)" font-family="sans-serif" font-size="10px" fill="#000" opacity="1">0.85</text><text text-anchor="start" transform="translate(18,8)" font-family="sans-serif" font-size="10px" fill="#000" opacity="1">1.00</text></g></g><path class="foreground" aria-hidden="true" d="" pointer-events="none" display="none"/></g></g><g class="mark-text role-legend-title" pointer-events="none"><text text-anchor="start" transform="translate(0,9)" font-family="sans-serif" font-size="11px" font-weight="bold" fill="#000" opacity="1">p_i (eq), p_i (cf)</text></g></g><path class="foreground" aria-hidden="true" d="" pointer-events="none" display="none"/></g></g></g><path class="foreground" aria-hidden="true" d="" display="none"/></g></g></g><defs><linearGradient id="gradient_2" x1="0" x2="0" y1="1" y2="0"><stop offset="0" stop-color="rgb(253, 201, 180)"/><stop offset="0.05444236771849381" stop-color="rgb(252, 190, 166)"/><stop offset="0.12427820199291367" stop-color="rgb(252, 175, 148)"/><stop offset="0.19411403626733353" stop-color="rgb(252, 159, 130)"/><stop offset="0.2639498705417534" stop-color="rgb(252, 143, 112)"/><stop offset="0.33378570481617326" stop-color="rgb(251, 127, 96)"/><stop offset="0.4036215390905931" stop-color="rgb(250, 111, 80)"/><stop offset="0.473457373365013" stop-color="rgb(247, 94, 68)"/><stop offset="0.5432932076394328" stop-color="rgb(242, 77, 56)"/><stop offset="0.6131290419138519" stop-color="rgb(234, 60, 46)"/><stop offset="0.6829648761882717" stop-color="rgb(223, 46, 39)"/><stop offset="0.7528007104626916" stop-color="rgb(209, 34, 33)"/><stop offset="0.8226365447371115" stop-color="rgb(195, 25, 28)"/><stop offset="0.8924723790115313" stop-color="rgb(180, 19, 24)"/><stop offset="0.9623082132859512" stop-color="rgb(161, 14, 21)"/><stop offset="1" stop-color="rgb(151, 11, 19)"/></linearGradient></defs></svg>