<svg xmlns="http://www.w3.org/2000/svg" xmlns:xlink="http://www.w3.org/1999/xlink" version="1.1" class="marks" width="638" height="277" viewBox="0 0 638 277"><rect width="638" height="277" fill="white"/><g fill="none" stroke-miterlimit="10" transform="translate(7,22)"><g class="mark-group role-frame root" role="graphics-object" aria-roledescription="group mark container"><g transform="translate(0,0)"><path class="background" aria-hidden="true" d="M0,0h0v250h0Z"/><g><g class="mark-group role-scope concat_0_group" role="graphics-object" aria-roledescription="group mark container"><g transform="translate(0,0)"><path class="background" aria-hidden="true" d="M0,0h250v250h-250Z"/><g><g class="mark-shape role-mark concat_0_marks" role="graphics-object" aria-roledescription="shape mark container"><path aria-label="L_j (eq): 3987.80539248" role="graphics-symbol" aria-roledescription="geoshape" transform="translate(0,0)" d="M67.676,151.924L58.69,153.599L53.163,150.205L54.208,143.994L49.052,135.851L41.317,136.255L36.886,137.969L31.119,135.566L31.608,131.068L38.524,125.939L44.014,125.94L45.44,119.142L34.362,91.713L35.562,90.102L89.518,89.837L89.534,104.472L90.477,119.286L89.016,126.281L84.261,138.121L75.465,138.133ZM44.012,163.286L50.604,160.875L58.054,164.432L62.449,169.579L62.611,174.909L59.482,176.237L50.84,173.596L49.233,169.047ZM43.557,187.553L49.746,185.705L53.986,191.781L60.88,198.099L59.672,201.972L54.546,203.241L49.923,199.848Z" fill="rgb(159, 54, 50)" stroke="#cdcdcd" stroke-width="1.5"/><path aria-label="L_j (eq): 2108.01610726" role="graphics-symbol" aria-roledescription="geoshape" transform="translate(0,0)" d="M84.261,138.121L89.264,142.241L95.587,151.035L101.09,153.839L96.691,162.237L93.563,165.038L92.082,171.564L86.156,167.419L82.747,163.017L77.396,159.833L67.676,151.924L75.465,138.133Z" fill="rgb(215, 145, 85)" stroke="#cdcdcd" stroke-width="1.5"/><path aria-label="L_j (eq): 912.800934991" role="graphics-symbol" aria-roledescription="geoshape" transform="translate(0,0)" d="M161.482,166.557L118.466,166.506L108.895,166.23L103.008,163.029L96.691,162.237L101.09,153.839L95.587,151.035L89.264,142.241L94.481,133.339L102.802,133.316L109.621,134.945L123.082,134.905L123.073,133.303L151.672,133.389L196.436,133.303L196.443,130.903L236.488,130.8L236.359,133.934L231.999,139.276L233.711,151.77L232.451,159.625L227.771,166.142L183.092,166.506Z" fill="rgb(236, 203, 153)" stroke="#cdcdcd" stroke-width="1.5"/><path aria-label="L_j (eq): 984.278835657" role="graphics-symbol" aria-roledescription="geoshape" transform="translate(0,0)" d="M89.264,142.241L84.261,138.121L89.016,126.281L90.477,119.286L89.534,104.472L89.518,89.837L91.124,89.852L91.218,48.564L91.027,35.52L125.752,35.626L177.352,35.724L181.333,34.85L199.005,51.957L227.482,79.893L227.596,87.384L234.842,95.902L236.477,102.487L240.844,110.347L250,118.513L244.732,125.63L236.488,130.8L196.443,130.903L196.436,133.303L151.672,133.389L123.073,133.303L123.082,134.905L109.621,134.945L102.802,133.316L94.481,133.339Z" fill="rgb(236, 200, 147)" stroke="#cdcdcd" stroke-width="1.5"/><path aria-label="L_j (eq): 1623.32664036" role="graphics-symbol" aria-roledescription="geoshape" transform="translate(0,0)" d="M92.082,171.564L93.563,165.038L96.691,162.237L103.008,163.029L108.895,166.23L118.466,166.506L161.482,166.557L161.65,185.646L160.643,185.648L160.514,210.351L110.545,215.15L109.715,210.2L105.276,206.494L104.318,198.355L105.169,194.96L102.778,185.627L100.063,180.073Z" fill="rgb(228, 168, 101)" stroke="#cdcdcd" stroke-width="1.5"/><path aria-label="L_j (eq): 604.14108925" role="graphics-symbol" aria-roledescription="geoshape" transform="translate(0,0)" d="M8.748,85.479L16.354,87.07L17.895,90.292L29.928,90.436L34.362,91.713L45.44,119.142L44.014,125.94L38.524,125.939L31.608,131.068L31.119,135.566L19.011,131.746L13.648,122.128L6.144,117.208L8.815,110.1ZM7.64,131.71L13.351,131.39L15.453,135.326L11.623,137.718L6.538,136.095ZM0,174.463L5.036,171.516L12.511,176.565L9.201,180.645L2.814,179.585Z" fill="rgb(238, 219, 189)" stroke="#cdcdcd" stroke-width="1.5"/></g><g class="mark-group role-title"><g transform="translate(125,-17)"><path class="background" aria-hidden="true" d="M0,0h0v0h0Z" pointer-events="none"/><g><g class="mark-text role-title-text" role="graphics-symbol" aria-roledescription="title" aria-label="Title text 'L_j EQ'" pointer-events="none"><text text-anchor="middle" transform="translate(0,10)" font-family="sans-serif" font-size="13px" font-weight="bold" fill="#000" opacity="1">L_j EQ</text></g></g><path class="foreground" aria-hidden="true" d="" pointer-events="none" display="none"/></g></g></g><path class="foreground" aria-hidden="true" d="" display="none"/></g></g><g class="mark-group role-scope concat_1_group" role="graphics-object" aria-roledescription="group mark container"><g transform="translate(274,0)"><path class="background" aria-hidden="true" d="M0,0h250v250h-250Z"/><g><g class="mark-shape role-mark concat_1_marks" role="graphics-object" aria-roledescription="shape mark container"><path aria-label="L_j (cf): 2512.20543632" role="graphics-symbol" aria-roledescription="geoshape" transform="translate(0,0)" d="M67.676,151.924L58.69,153.599L53.163,150.205L54.208,143.994L49.052,135.851L41.317,136.255L36.886,137.969L31.119,135.566L31.608,131.068L38.524,125.939L44.014,125.94L45.44,119.142L34.362,91.713L35.562,90.102L89.518,89.837L89.534,104.472L90.477,119.286L89.016,126.281L84.261,138.121L75.465,138.133ZM44.012,163.286L50.604,160.875L58.054,164.432L62.449,169.579L62.611,174.909L59.482,176.237L50.84,173.596L49.233,169.047ZM43.557,187.553L49.746,185.705L53.986,191.781L60.88,198.099L59.672,201.972L54.546,203.241L49.923,199.848Z" fill="rgb(203, 126, 79)" stroke="#ababab" stroke-width="1.5"/><path aria-label="L_j (cf): 2226.23716144" role="graphics-symbol" aria-roledescription="geoshape" transform="translate(0,0)" d="M84.261,138.121L89.264,142.241L95.587,151.035L101.09,153.839L96.691,162.237L93.563,165.038L92.082,171.564L86.156,167.419L82.747,163.017L77.396,159.833L67.676,151.924L75.465,138.133Z" fill="rgb(211, 140, 84)" stroke="#ababab" stroke-width="1.5"/><path aria-label="L_j (cf): 1358.61655418" role="graphics-symbol" aria-roledescription="geoshape" transform="translate(0,0)" d="M161.482,166.557L118.466,166.506L108.895,166.23L103.008,163.029L96.691,162.237L101.09,153.839L95.587,151.035L89.264,142.241L94.481,133.339L102.802,133.316L109.621,134.945L123.082,134.905L123.073,133.303L151.672,133.389L196.436,133.303L196.443,130.903L236.488,130.8L236.359,133.934L231.999,139.276L233.711,151.77L232.451,159.625L227.771,166.142L183.092,166.506Z" fill="rgb(232, 181, 117)" stroke="#ababab" stroke-width="1.5"/><path aria-label="L_j (cf): 1501.16801449" role="graphics-symbol" aria-roledescription="geoshape" transform="translate(0,0)" d="M89.264,142.241L84.261,138.121L89.016,126.281L90.477,119.286L89.534,104.472L89.518,89.837L91.124,89.852L91.218,48.564L91.027,35.52L125.752,35.626L177.352,35.724L181.333,34.85L199.005,51.957L227.482,79.893L227.596,87.384L234.842,95.902L236.477,102.487L240.844,110.347L250,118.513L244.732,125.63L236.488,130.8L196.443,130.903L196.436,133.303L151.672,133.389L123.073,133.303L123.082,134.905L109.621,134.945L102.802,133.316L94.481,133.339Z" fill="rgb(230, 174, 108)" stroke="#ababab" stroke-width="1.5"/><path aria-label="L_j (cf): 1413.61686612" role="graphics-symbol" aria-roledescription="geoshape" transform="translate(0,0)" d="M92.082,171.564L93.563,165.038L96.691,162.237L103.008,163.029L108.895,166.23L118.466,166.506L161.482,166.557L161.65,185.646L160.643,185.648L160.514,210.351L110.545,215.15L109.715,210.2L105.276,206.494L104.318,198.355L105.169,194.96L102.778,185.627L100.063,180.073Z" fill="rgb(231, 178, 114)" stroke="#ababab" stroke-width="1.5"/><path aria-label="L_j (cf): 1208.52496744" role="graphics-symbol" aria-roledescription="geoshape" transform="translate(0,0)" d="M8.748,85.479L16.354,87.07L17.895,90.292L29.928,90.436L34.362,91.713L45.44,119.142L44.014,125.94L38.524,125.939L31.608,131.068L31.119,135.566L19.011,131.746L13.648,122.128L6.144,117.208L8.815,110.1ZM7.64,131.71L13.351,131.39L15.453,135.326L11.623,137.718L6.538,136.095ZM0,174.463L5.036,171.516L12.511,176.565L9.201,180.645L2.814,179.585Z" fill="rgb(234, 189, 128)" stroke="#ababab" stroke-width="1.5"/></g><g class="mark-group role-title"><g transform="translate(125,-17)"><path class="background" aria-hidden="true" d="M0,0h0v0h0Z" pointer-events="none"/><g><g class="mark-text role-title-text" role="graphics-symbol" aria-roledescription="title" aria-label="Title text 'L_j CF'" pointer-events="none"><text text-anchor="middle" transform="translate(0,10)" font-family="sans-serif" font-size="13px" font-weight="bold" fill="#000" opacity="1">L_j CF</text></g></g><path class="foreground" aria-hidden="true" d="" pointer-events="none" display="none"/></g></g></g><path class="foreground" aria-hidden="true" d="" display="none"/></g></g><g class="mark-group role-legend" role="graphics-symbol" aria-roledescription="legend" aria-label="Gradient legend titled 'L_j (eq), L_j (cf)' for fill color with values from 604 to 3,988"><g transform="translate(544,0)"><path class="background" aria-hidden="true" d="M0,0h82v216h-82Z" pointer-events="none"/><g><g class="mark-group role-legend-entry"><g transform="translate(0,16)"><path class="background" aria-hidden="true" d="M0,0h0v0h0Z" pointer-events="none"/><g><g class="mark-rect role-legend-gradient" pointer-events="none"><path d="M0,0h16v200h-16Z" fill="url(#gradient_4)" stroke="#ddd" stroke-width="0" opacity="1"/></g><g class="mark-text role-legend-label" pointer-events="none"><text text-anchor="start" transform="translate(18,179.60176215633493)" font-family="sans-serif" font-size="10px" fill="#000" opacity="1">1,000</text><text text-anchor="start" transform="translate(18,120.49424377474745)" font-family="sans-serif" font-size="10px" fill="#000" opacity="1">2,000</text><text text-anchor="start" transform="translate(18,61.38672539315996)" font-family="sans-serif" font-size="10px" fill="#000" opacity="1">3,000</text></g></g><path class="foreground" aria-hidden="true" d="" pointer-events="none" display="none"/></g></g><g class="mark-text role-legend-title" pointer-events="none"><text text-anchor="start" transform="translate(0,9)" font-family="sans-serif" font-size="11px" font-weight="bold" fill="#000" opacity="1">L_j (eq), L_j (cf)</text></g></g><path class="foreground" aria-hidden="true" d="" pointer-events="none" display="none"/></g></g></g><path class="foreground" aria-hidden="true" d="" display="none"/></g></g></g><defs><linearGradient id="gradient_4" x1="0" x2="0" y1="1" y2="0"><stop offset="0" stop-color="rgb(238, 219, 189)"/><stop offset="0.05788367083673775" stop-color="rgb(237, 209, 166)"/><stop offset="0.11699118921832524" stop-color="rgb(235, 199, 145)"/><stop offset="0.17609870759991275" stop-color="rgb(234, 189, 129)"/><stop offset="0.23520622598150026" stop-color="rgb(231, 179, 115)"/><stop offset="0.29431374436308777" stop-color="rgb(228, 169, 102)"/><stop offset="0.3534212627446752" stop-color="rgb(224, 159, 93)"/><stop offset="0.41252878112626273" stop-color="rgb(219, 150, 86)"/><stop offset="0.47163629950785024" stop-color="rgb(212, 141, 85)"/><stop offset="0.5307438178894377" stop-color="rgb(206, 132, 82)"/><stop offset="0.5898513362710253" stop-color="rgb(200, 122, 77)"/><stop offset="0.6489588546526127" stop-color="rgb(196, 112, 70)"/><stop offset="0.7080663730342002" stop-color="rgb(191, 102, 62)"/><stop offset="0.7671738914157877" stop-color="rgb(187, 91, 57)"/><stop offset="0.8262814097973752" stop-color="rgb(181, 81, 53)"/><stop offset="0.8853889281789626" stop-color="rgb(175, 70, 51)"/><stop offset="0.9444964465605502" stop-color="rgb(167, 62, 51)"/><stop offset="1" stop-color="rgb(159, 54, 50)"/></linearGradient></defs></svg>