<svg xmlns="http://www.w3.org/2000/svg" xmlns:xlink="http://www.w3.org/1999/xlink" version="1.1" class="marks" width="329" height="277" viewBox="0 0 329 277"><rect width="329" height="277" fill="white"/><g fill="none" stroke-miterlimit="10" transform="translate(7,22)"><g class="mark-group role-frame root" role="graphics-object" aria-roledescription="group mark container"><g transform="translate(0,0)"><path class="background" aria-hidden="true" d="M0,0h250v250h-250Z"/><g><g class="mark-shape role-mark marks" role="graphics-object" aria-roledescription="shape mark container"><path aria-label="Δ L_j: −2013.50556368" role="graphics-symbol" aria-roledescription="geoshape" transform="translate(0,0)" d="M67.676,151.924L58.69,153.599L53.163,150.205L54.208,143.994L49.052,135.851L41.317,136.255L36.886,137.969L31.119,135.566L31.608,131.068L38.524,125.939L44.014,125.94L45.44,119.142L34.362,91.713L35.562,90.102L89.518,89.837L89.534,104.472L90.477,119.286L89.016,126.281L84.261,138.121L75.465,138.133ZM44.012,163.286L50.604,160.875L58.054,164.432L62.449,169.579L62.611,174.909L59.482,176.237L50.84,173.596L49.233,169.047ZM43.557,187.553L49.746,185.705L53.986,191.781L60.88,198.099L59.672,201.972L54.546,203.241L49.923,199.848Z" fill="rgb(163, 32, 47)" stroke="#ababab" stroke-width="1.5"/><path aria-label="Δ L_j: 564.961161445" role="graphics-symbol" aria-roledescription="geoshape" transform="translate(0,0)" d="M84.261,138.121L89.264,142.241L95.587,151.035L101.09,153.839L96.691,162.237L93.563,165.038L92.082,171.564L86.156,167.419L82.747,163.017L77.396,159.833L67.676,151.924L75.465,138.133Z" fill="rgb(195, 222, 235)" stroke="#ababab" stroke-width="1.5"/><path aria-label="Δ L_j: 518.183554177" role="graphics-symbol" aria-roledescription="geoshape" transform="translate(0,0)" d="M161.482,166.557L118.466,166.506L108.895,166.23L103.008,163.029L96.691,162.237L101.09,153.839L95.587,151.035L89.264,142.241L94.481,133.339L102.802,133.316L109.621,134.945L123.082,134.905L123.073,133.303L151.672,133.389L196.436,133.303L196.443,130.903L236.488,130.8L236.359,133.934L231.999,139.276L233.711,151.77L232.451,159.625L227.771,166.142L183.092,166.506Z" fill="rgb(201, 224, 237)" stroke="#ababab" stroke-width="1.5"/><path aria-label="Δ L_j: 655.26001449" role="graphics-symbol" aria-roledescription="geoshape" transform="translate(0,0)" d="M89.264,142.241L84.261,138.121L89.016,126.281L90.477,119.286L89.534,104.472L89.518,89.837L91.124,89.852L91.218,48.564L91.027,35.52L125.752,35.626L177.352,35.724L181.333,34.85L199.005,51.957L227.482,79.893L227.596,87.384L234.842,95.902L236.477,102.487L240.844,110.347L250,118.513L244.732,125.63L236.488,130.8L196.443,130.903L196.436,133.303L151.672,133.389L123.073,133.303L123.082,134.905L109.621,134.945L102.802,133.316L94.481,133.339Z" fill="rgb(185, 216, 232)" stroke="#ababab" stroke-width="1.5"/><path aria-label="Δ L_j: −122.924133879" role="graphics-symbol" aria-roledescription="geoshape" transform="translate(0,0)" d="M92.082,171.564L93.563,165.038L96.691,162.237L103.008,163.029L108.895,166.23L118.466,166.506L161.482,166.557L161.65,185.646L160.643,185.648L160.514,210.351L110.545,215.15L109.715,210.2L105.276,206.494L104.318,198.355L105.169,194.96L102.778,185.627L100.063,180.073Z" fill="rgb(244, 233, 228)" stroke="#ababab" stroke-width="1.5"/><path aria-label="Δ L_j: 872.252967443" role="graphics-symbol" aria-roledescription="geoshape" transform="translate(0,0)" d="M8.748,85.479L16.354,87.07L17.895,90.292L29.928,90.436L34.362,91.713L45.44,119.142L44.014,125.94L38.524,125.939L31.608,131.068L31.119,135.566L19.011,131.746L13.648,122.128L6.144,117.208L8.815,110.1ZM7.64,131.71L13.351,131.39L15.453,135.326L11.623,137.718L6.538,136.095ZM0,174.463L5.036,171.516L12.511,176.565L9.201,180.645L2.814,179.585Z" fill="rgb(159, 203, 225)" stroke="#ababab" stroke-width="1.5"/></g><g class="mark-group role-legend" role="graphics-symbol" aria-roledescription="legend" aria-label="Gradient legend titled 'Δ L_j' for fill color with values from −2,215 to 2,215"><g transform="translate(268,0)"><path class="background" aria-hidden="true" d="M0,0h49v216h-49Z" pointer-events="none"/><g><g class="mark-group role-legend-entry"><g transform="translate(0,16)"><path class="background" aria-hidden="true" d="M0,0h0v0h0Z" pointer-events="none"/><g><g class="mark-rect role-legend-gradient" pointer-events="none"><path d="M0,0h16v200h-16Z" fill="url(#gradient_11)" stroke="#ddd" stroke-width="0" opacity="1"/></g><g class="mark-text role-legend-label" pointer-events="none"><text text-anchor="start" transform="translate(18,193.29931930568)" font-family="sans-serif" font-size="10px" fill="#000" opacity="1">−2,000</text><text text-anchor="start" transform="translate(18,148.14965965284)" font-family="sans-serif" font-size="10px" fill="#000" opacity="1">−1,000</text><text text-anchor="start" transform="translate(18,103)" font-family="sans-serif" font-size="10px" fill="#000" opacity="1">0</text><text text-anchor="start" transform="translate(18,57.85034034716001)" font-family="sans-serif" font-size="10px" fill="#000" opacity="1">1,000</text><text text-anchor="start" transform="translate(18,12.700680694319974)" font-family="sans-serif" font-size="10px" fill="#000" opacity="1">2,000</text></g></g><path class="foreground" aria-hidden="true" d="" pointer-events="none" display="none"/></g></g><g class="mark-text role-legend-title" pointer-events="none"><text text-anchor="start" transform="translate(0,9)" font-family="sans-serif" font-size="11px" font-weight="bold" fill="#000" opacity="1">Δ L_j</text></g></g><path class="foreground" aria-hidden="true" d="" pointer-events="none" display="none"/></g></g><g class="mark-group role-title"><g transform="translate(125,-17)"><path class="background" aria-hidden="true" d="M0,0h0v0h0Z" pointer-events="none"/><g><g class="mark-text role-title-text" role="graphics-symbol" aria-roledescription="title" aria-label="Title text 'Δ p_i, CF - EQ'" pointer-events="none"><text text-anchor="middle" transform="translate(0,10)" font-family="sans-serif" font-size="13px" font-weight="bold" fill="#000" opacity="1">Δ p_i, CF - EQ</text></g></g><path class="foreground" aria-hidden="true" d="" pointer-events="none" display="none"/></g></g></g><path class="foreground" aria-hidden="true" d="" display="none"/></g></g></g><defs><linearGradient id="gradient_11" x1="0" x2="0" y1="1" y2="0"><stop offset="0" stop-color="rgb(140, 13, 37)"/><stop offset="0.003353743818760027" stop-color="rgb(142, 14, 38)"/><stop offset="0.04850340347160002" stop-color="rgb(165, 33, 47)"/><stop offset="0.09365306312444002" stop-color="rgb(188, 51, 57)"/><stop offset="0.13880272277728" stop-color="rgb(203, 78, 72)"/><stop offset="0.18395238243012002" stop-color="rgb(218, 106, 88)"/><stop offset="0.22910204208296" stop-color="rgb(229, 133, 109)"/><stop offset="0.2742517017358" stop-color="rgb(239, 159, 132)"/><stop offset="0.31940136138864" stop-color="rgb(245, 183, 156)"/><stop offset="0.36455102104148" stop-color="rgb(249, 203, 181)"/><stop offset="0.40970068069432003" stop-color="rgb(250, 221, 205)"/><stop offset="0.45485034034716" stop-color="rgb(246, 230, 221)"/><stop offset="0.5" stop-color="rgb(242, 239, 238)"/><stop offset="0.54514965965284" stop-color="rgb(228, 234, 238)"/><stop offset="0.59029931930568" stop-color="rgb(213, 230, 239)"/><stop offset="0.63544897895852" stop-color="rgb(191, 219, 234)"/><stop offset="0.6805986386113599" stop-color="rgb(167, 207, 228)"/><stop offset="0.7257482982642" stop-color="rgb(141, 192, 219)"/><stop offset="0.77089795791704" stop-color="rgb(112, 174, 209)"/><stop offset="0.81604761756988" stop-color="rgb(86, 155, 199)"/><stop offset="0.86119727722272" stop-color="rgb(65, 136, 188)"/><stop offset="0.90634693687556" stop-color="rgb(45, 117, 176)"/><stop offset="0.9514965965284001" stop-color="rgb(33, 97, 155)"/><stop offset="0.99664625618124" stop-color="rgb(20, 77, 135)"/><stop offset="1" stop-color="rgb(19, 75, 133)"/></linearGradient></defs></svg>